<svg width="208" height="29" viewBox="0 0 208 29" fill="none" xmlns="http://www.w3.org/2000/svg">
<rect width="2" height="29" fill="#1A1A1A"/>
<rect x="5" width="4" height="29" fill="#1A1A1A"/>
<rect x="12" width="6" height="29" fill="#1A1A1A"/>
<rect x="21" width="2" height="29" fill="#1A1A1A"/>
<rect x="26" width="4" height="29" fill="#1A1A1A"/>
<rect x="33" width="2" height="29" fill="#1A1A1A"/>
<rect x="38" width="2" height="29" fill="#1A1A1A"/>
<rect x="43" width="2" height="29" fill="#1A1A1A"/>
<rect x="48" width="6" height="29" fill="#1A1A1A"/>
<rect x="57" width="2" height="29" fill="#1A1A1A"/>
<rect x="62" width="2" height="29" fill="#1A1A1A"/>
<rect x="67" width="6" height="29" fill="#1A1A1A"/>
<rect x="76" width="2" height="29" fill="#1A1A1A"/>
<rect x="81" width="4" height="29" fill="#1A1A1A"/>
<rect x="88" width="4" height="29" fill="#1A1A1A"/>
<rect x="95" width="2" height="29" fill="#1A1A1A"/>
<rect x="100" width="8" height="29" fill="#1A1A1A"/>
<rect x="111" width="2" height="29" fill="#1A1A1A"/>
<rect x="116" width="6" height="29" fill="#1A1A1A"/>
<rect x="125" width="2" height="29" fill="#1A1A1A"/>
<rect x="130" width="2" height="29" fill="#1A1A1A"/>
<rect x="141" y="29" width="6" height="29" transform="rotate(-180 141 29)" fill="#1A1A1A"/>
<rect x="146" y="29" width="2" height="29" transform="rotate(-180 146 29)" fill="#1A1A1A"/>
<rect x="151" y="29" width="2" height="29" transform="rotate(-180 151 29)" fill="#1A1A1A"/>
<rect x="160" y="29" width="6" height="29" transform="rotate(-180 160 29)" fill="#1A1A1A"/>
<rect x="165" y="29" width="2" height="29" transform="rotate(-180 165 29)" fill="#1A1A1A"/>
<rect x="172" y="29" width="4" height="29" transform="rotate(-180 172 29)" fill="#1A1A1A"/>
<rect x="179" y="29" width="4" height="29" transform="rotate(-180 179 29)" fill="#1A1A1A"/>
<rect x="182" width="2" height="29" fill="#1A1A1A"/>
<rect x="187" width="2" height="29" fill="#1A1A1A"/>
<rect x="192" width="2" height="29" fill="#1A1A1A"/>
<rect x="197" width="2" height="29" fill="#1A1A1A"/>
<rect x="208" y="29" width="6" height="29" transform="rotate(-180 208 29)" fill="#1A1A1A"/>
</svg>
