<svg width="78" height="26" viewBox="0 0 78 26" fill="none" xmlns="http://www.w3.org/2000/svg">
<path d="M74.346 7.63747C74.346 8.23649 74.4041 8.854 74.4413 9.10356C74.4652 9.2639 74.4926 9.41209 74.5146 10.0956C74.5347 10.7208 74.5221 11.912 74.5075 12.5546C74.489 13.3764 74.3469 13.6655 74.2217 13.8867C74.1036 14.0952 73.9508 14.4578 73.8476 14.7373C73.72 15.0826 73.5837 15.368 73.4807 15.6175C73.3609 15.9078 73.2756 16.1602 73.1288 16.388C72.9277 16.7001 72.4693 17.0704 72.2781 17.1514C72.0682 17.2402 71.8531 17.4225 71.6181 17.467C71.3761 17.5127 71.1779 17.5695 70.9944 17.6355C70.7671 17.7173 70.5327 17.7746 69.3479 17.8191C68.8263 17.8386 68.4927 17.9216 67.8965 17.9656C67.3452 18.0063 66.2837 17.9806 65.7084 17.9588C64.9617 17.9305 64.796 17.7174 64.5762 17.5341C64.1571 17.1847 64.0768 16.9692 63.5502 16.4349C63.3992 16.2816 63.2846 16.2205 63.2256 16.1908C63.133 16.1442 63.3572 16.3957 63.3574 16.469C63.3576 16.5418 63.0513 16.5282 62.7287 16.5064C62.567 16.4955 62.5214 16.309 62.4188 16.1327C62.3123 15.9496 62.0681 15.6937 61.8907 15.4725C61.755 15.3034 61.7001 15.0766 61.5826 14.8931C61.455 14.6938 61.392 14.5044 61.3476 14.2916C61.2938 14.0345 61.098 13.5969 61.0249 13.2795C60.9439 12.9275 60.9369 12.6858 60.8782 12.4796C60.8258 12.296 60.6878 12.1277 60.5775 11.9442C60.4602 11.7489 60.3797 11.5555 60.2622 11.3647C60.1205 11.1347 60.0716 10.9394 60.0344 10.7265C60.0016 10.5386 59.9537 10.1057 59.9099 9.79479C59.9034 9.74862 59.8806 9.70698 59.8731 9.0382C59.8656 8.36941 59.8656 7.07674 59.8802 6.38903C59.8947 5.70132 59.9237 5.65775 59.9605 5.62078C60.0338 5.54704 60.1583 5.52483 60.2901 5.53936C60.3507 5.54603 60.3929 5.58293 60.4154 6.91961C60.4378 8.2563 60.4378 10.8997 60.4814 12.3051C60.5249 13.7104 60.6121 13.7976 60.686 13.857C61.195 14.266 62.3585 13.9173 62.5643 13.7635C62.896 13.5155 62.9897 13.228 63.2166 12.8627C63.8358 11.8657 64.09 11.6726 64.3832 11.4893C64.6375 11.3302 64.9263 11.2034 65.2559 11.144C65.3998 11.1181 65.6006 11.0705 65.719 11.0705C65.9492 11.0705 65.1921 11.0996 64.7769 11.1871C63.89 11.3742 63.197 11.4226 63.0212 11.4444C62.9445 11.4539 62.9034 11.5098 62.91 11.5903C62.927 11.7967 63.2234 12.052 63.9888 12.5263C64.5531 12.8759 65.524 13.3636 66.0251 13.6545C66.5262 13.9455 66.5407 14.0036 66.5482 14.1642C66.5557 14.3249 66.5557 14.5863 66.6065 14.721C66.6573 14.8557 66.759 14.8557 66.8404 14.8339C66.9893 14.7941 67.432 14.3169 68.077 13.4248C68.3977 12.9812 68.4315 12.3874 68.4911 11.9941C68.6253 11.1094 68.3901 10.8663 68.2799 10.5582C68.2539 10.4855 68.2431 10.4262 68.1775 10.4035C67.8161 10.2786 67.5107 10.7466 66.6397 11.6099C66.3832 11.8642 66.292 12.0379 66.2115 12.2135C66.1333 12.3841 66.1155 12.8711 66.1373 13.4725C66.1449 13.6828 66.2027 13.6963 66.3704 13.7038C66.8281 13.7243 67.2876 13.6532 67.595 13.5507C67.8682 13.4596 68.226 13.3746 68.6214 13.2137C68.9568 13.0773 69.2823 12.6722 69.6923 12.1673C69.895 11.9177 70.0442 11.648 70.2499 11.172C70.7435 10.0301 71.0296 9.16473 71.1179 9.19158C71.2832 9.24188 71.0899 9.85751 70.9803 10.613C70.8707 11.3685 70.6964 12.3707 70.5849 12.9596C70.4733 13.5485 70.4297 13.6937 70.4726 13.7104C70.5155 13.7272 70.6463 13.611 70.9387 13.1372C71.2312 12.6634 71.6815 11.8355 71.9642 11.271C72.5521 10.0976 72.4975 9.80953 72.4684 9.6995C72.4563 9.6537 72.3813 9.66209 72.3005 9.71292C72.2197 9.76376 72.1181 9.86543 71.6009 10.5351C71.0838 11.2048 70.1542 12.4393 69.6681 13.0971C69.1819 13.7549 69.1674 13.7985 69.1817 13.8282C69.2715 14.0146 69.4456 14.2676 69.5481 14.4661C69.5776 14.5176 69.6067 14.5757 69.6216 14.8308C69.6366 15.0859 69.6366 15.5361 69.6366 15.956" stroke="#CCCCCC" stroke-width="4.11682" stroke-linecap="round"/>
<path d="M35.8935 11.1846C35.8686 11.1722 35.8438 11.1597 35.8124 11.1534C35.7449 11.1396 35.5317 11.4572 35.2437 12.1071C34.9526 12.764 35.0286 13.3511 35.0162 13.7198C35.0025 14.1272 34.9534 14.4795 34.9721 14.6677C34.9775 14.7224 35.0279 14.6822 35.0719 14.601C35.1794 14.4026 35.3035 13.8087 35.4351 12.9208C35.5546 12.1149 35.4302 11.5621 35.3426 11.3179C35.2495 11.0584 35.1166 10.7973 35.029 10.6087C34.9772 10.4973 34.941 10.3705 34.9036 10.2703C34.8877 10.2276 34.8414 10.2197 34.8098 10.2444C34.7782 10.269 34.7534 10.331 34.6476 10.7725C34.5417 11.2139 34.3556 12.0328 34.2411 12.8146C34.1266 13.5963 34.0894 14.316 34.0826 14.7611C34.0676 15.7514 34.3518 16.2975 34.5015 16.4607C34.6372 16.6087 34.8775 16.3614 35.0655 16.1924C35.2495 16.027 35.4415 15.9726 36.1162 15.9537C36.5619 15.9411 36.8575 15.8095 37.1826 15.6976C37.3465 15.6412 37.5682 15.4492 37.8882 15.149C38.2082 14.8488 38.6052 14.4145 38.8346 14.1721C39.064 13.9298 39.1136 13.8926 39.2399 13.8542" stroke="#CCCCCC" stroke-width="2.40148" stroke-linecap="round"/>
<path d="M37.3225 13.5166C37.3101 13.4794 37.2977 13.4422 37.3099 13.4106C37.3369 13.3406 37.5094 13.2666 37.9143 13.005C38.6981 12.4989 39.2145 12.0757 39.3146 11.9881C39.5892 11.7476 39.9786 11.4613 40.1606 11.3861C40.2821 11.3359 40.4054 11.3982 41.2621 11.4234C42.0813 11.4475 43.6823 11.3989 44.5627 11.3737C45.5556 11.3453 45.7939 11.2982 46.0998 11.2485C46.8836 11.1213 47.1348 10.7725 47.436 10.5907C47.7081 10.4265 47.9124 10.3085 48.0943 10.1957C48.5577 9.90851 49.0404 9.34367 49.235 9.11205C49.4212 8.89039 49.4171 8.70446 49.4301 8.57248C49.4388 8.48414 48.9197 8.68979 48.3372 8.91521C48.0363 9.03169 47.8146 9.12935 47.4711 9.279C47.0153 9.47757 46.5249 9.78059 46.0865 9.9434C45.8685 10.0243 45.783 10.0946 45.7701 10.0827C45.7296 10.0458 45.8812 9.89715 46.2051 9.54766C46.529 9.19816 47.0874 8.63979 47.4433 8.32112C48.1433 7.69429 48.6772 7.71405 48.8277 7.58866C48.9658 7.47374 49.7119 7.46288 50.2432 7.40046C50.3556 7.38726 50.5294 7.38768 50.6499 7.4249C50.7704 7.46213 50.8324 7.53658 50.8706 7.59975C50.9858 7.79042 50.9588 7.97613 50.9964 8.40516C51.0284 8.77096 51.0092 9.44219 50.9967 9.80597C50.9707 10.5701 50.9091 11.3222 50.8651 11.548C50.8337 11.7094 50.7963 11.8614 50.6465 12.1239C50.3071 12.7183 50.1451 12.9894 50.0133 13.1961C49.8102 13.5145 49.6435 13.7287 49.4807 13.9233C49.3565 14.0717 49.2179 14.2303 49.0295 14.4121C48.8665 14.5694 48.5546 14.8808 48.153 15.1389C47.7694 15.3855 47.5258 15.5967 47.325 15.7221C47.1197 15.8503 46.8738 15.9351 46.5176 16.1041C46.051 16.3254 45.6962 16.3239 45.4764 16.3491C45.2066 16.38 44.969 16.4871 44.7682 16.5495C44.5615 16.6137 44.3298 16.6375 44.0541 16.6999C43.9073 16.7331 43.7778 16.7375 43.4544 16.7751C42.0948 16.9332 41.8105 16.8631 41.6601 16.8134C41.5106 16.7641 41.6338 16.5002 41.6962 16.3194C41.9751 15.5111 41.8842 14.6578 41.9842 14.5452C42.2081 14.2931 42.6855 14.2438 43.2335 14.2062C43.6443 14.178 44.3275 14.1934 44.7721 14.181C45.4037 14.1634 45.6815 14.1182 45.8814 14.1058C46.4353 14.0714 46.8099 14.0182 46.8541 13.9868C46.861 13.9819 46.7866 13.9926 46.1963 14.2782C45.6059 14.5638 44.4892 15.1222 43.5789 15.5401C42.6686 15.958 41.9985 16.2186 41.5044 16.4459C40.3091 16.9958 40.1313 17.2135 39.9055 17.2703C39.5027 17.3716 39.192 17.4015 38.3409 17.4209C37.9723 17.4293 37.7248 17.3519 37.5362 17.2895C37.3305 17.2214 37.1728 17.1518 37.016 17.0452C36.92 16.98 36.8465 16.901 36.8337 16.8198C36.8162 16.7091 37.145 16.5386 37.5575 16.2945C38.3519 15.8246 38.9882 15.911 39.1956 15.8418C39.3634 15.7858 39.5274 15.6854 39.7094 15.5912C39.9459 15.4688 40.1666 15.4718 40.4236 15.4032C40.5178 15.3718 40.5934 15.3466 40.687 15.3278C40.7434 15.3214 40.8178 15.3214 40.8946 15.3214" stroke="#CCCCCC" stroke-width="4.11682" stroke-linecap="round"/>
<path d="M15.4427 16.709C15.0251 16.8646 14.8838 16.9636 14.7631 17.0522C14.7326 17.0746 14.7065 17.1051 14.5834 17.3125C14.4602 17.5198 14.2428 17.9055 14.1238 18.1148C13.9471 18.4253 13.8845 18.6702 13.8136 18.9607C13.767 19.1517 13.7425 19.4204 13.7848 19.6165C13.8413 19.8783 13.9686 20.2982 14.0363 20.5163C14.0743 20.6389 14.0826 20.9919 14.0509 21.2178C14.0412 21.287 13.9482 21.3347 13.8181 21.4755C13.55 21.7655 13.3319 21.9582 13.2473 22.0112C12.9799 22.1785 12.7938 22.2343 12.5392 22.2665C12.3638 22.2887 12.22 22.3903 12.1136 22.4471C11.9612 22.5283 11.8374 22.5603 11.657 22.677C11.4689 22.7986 11.2853 22.8855 11.1396 22.9713C10.9742 23.0686 10.881 23.1482 10.7817 23.2227C10.7515 23.2453 10.7182 23.2825 10.7142 23.3076C10.7101 23.3327 10.7382 23.3467 11.1805 23.3504C11.6227 23.3541 12.4784 23.3471 12.9332 23.34C13.388 23.3329 13.4161 23.3259 13.69 23.3223C13.964 23.3186 14.483 23.3186 14.7749 23.3116C15.1164 23.3034 15.2646 23.2761 15.445 23.2691C15.5916 23.2634 15.7955 23.2336 16.0291 23.2266C16.1661 23.2225 16.4744 23.1911 16.9097 23.1841C17.2506 23.1786 17.4184 23.1206 17.885 23.0285C18.0938 22.9874 18.2473 22.9505 18.4352 22.9291C18.6114 22.9089 18.961 22.8515 19.2358 22.7875C19.3662 22.7572 19.4591 22.6955 19.5899 22.674C19.8271 22.6351 20.0108 22.6105 20.1957 22.589C20.3935 22.5661 20.6561 22.4617 20.8155 22.3944C21.0884 22.279 21.3787 22.2704 21.5556 22.2208C21.8692 22.1329 22.0371 22.0724 22.1865 21.9765C22.3389 21.8788 22.4766 21.7889 22.601 21.7425C22.7213 21.6978 22.8736 21.6329 22.9975 21.541C23.2697 21.3394 23.334 21.187 23.4089 21.0663C23.4782 20.9546 23.4551 20.8112 23.4411 20.7369C23.4164 20.6061 23.2009 20.6195 22.9853 20.5737C22.6704 20.5068 22.4071 20.5133 22.2556 20.4922C21.9937 20.4559 21.7347 20.3857 21.5437 20.3787C21.2854 20.3692 21.1532 20.3362 20.6545 20.3256C20.205 20.316 19.3563 20.322 18.8875 20.308C18.2481 20.2888 18.0862 20.0818 17.9334 19.9928C17.8806 19.962 17.8093 19.9609 17.7211 19.8799C17.4507 19.6317 17.483 19.3528 17.4055 19.1537C17.2988 18.88 17.3275 18.4806 17.2777 18.3778C17.2172 18.2525 17.2352 18.1266 17.1116 17.9211C17.04 17.8021 16.9942 17.7155 16.9308 17.602C16.8669 17.4878 16.7749 17.4741 16.7254 17.4636C16.6295 17.4432 16.5908 17.3045 16.5269 17.1665C16.5015 17.1118 16.414 17.0214 16.2972 16.9116C16.155 16.778 15.8682 16.8788 15.801 16.9282C15.7436 16.9703 15.7756 17.0839 15.8073 17.1759C15.8204 17.2138 15.8461 17.2259 15.871 17.2366C15.9222 17.2587 16.1843 17.2616 16.5419 17.2756C16.6689 17.2806 16.6822 17.3177 16.6894 17.4864C16.7099 17.9634 16.6826 18.3238 16.6579 18.4086C16.6336 18.4917 16.6049 18.6139 16.5378 18.7764C16.4625 18.9587 16.2589 19.2292 16.0218 19.53C15.8843 19.7045 15.7131 20.0147 15.529 20.4395C15.44 20.645 15.3091 20.8867 15.1604 21.2474C15.0966 21.4023 15.0819 21.51 15.0114 21.7431C14.941 21.9761 14.8217 22.3338 14.7603 22.5461C14.6989 22.7584 14.6989 22.8145 14.6989 22.8084C14.6989 22.7321 14.7199 22.5686 14.7764 22.2551C14.8162 22.0336 14.8608 21.6822 14.8861 21.256C14.9114 20.8299 14.9114 20.339 14.8869 19.9283C14.8623 19.5176 14.8132 19.202 14.7879 19.0183C14.7627 18.8347 14.7627 18.7926 14.7662 18.792C14.8082 18.7843 14.8821 19.0732 15.0729 19.4233C15.223 19.6986 15.3926 19.9379 15.5512 20.3189C15.6493 20.5545 15.8011 20.8682 15.919 21.0939C16.107 21.4536 16.2359 21.604 16.331 21.6675C16.4881 21.7725 16.766 21.8095 17.1505 21.8414C17.3803 21.8604 17.6824 21.8522 17.9289 21.8347C18.3599 21.804 18.5878 21.7249 18.655 21.6755C18.7124 21.6334 18.6944 21.5408 18.6874 21.4772C18.6815 21.4236 18.6099 21.3848 18.5145 21.3495C18.4036 21.3083 17.9965 21.3209 17.4689 21.3033C17.1678 21.2933 17.1009 21.13 16.9453 21.0273C16.849 20.9637 16.6554 20.9315 16.5097 20.889C16.4395 20.8685 16.7876 20.8886 17.2873 21.001C17.6773 21.0888 18.334 21.2818 18.7683 21.3862C19.2026 21.4907 19.392 21.5117 19.6859 21.5226C19.9798 21.5334 20.3726 21.5334 20.7772 21.5334" stroke="#CCCCCC" stroke-width="2.05841" stroke-linecap="round"/>
<path d="M21.5204 3.74517C21.5064 3.70309 21.408 3.59024 21.2628 3.44157C21.1902 3.36724 21.005 3.16603 20.7323 2.88985C20.5634 2.71878 20.4301 2.61197 20.3059 2.53407C20.1783 2.45408 20.0969 2.37818 19.9906 2.32144C19.8787 2.26167 19.7641 2.23622 19.6012 2.17628C19.4862 2.13399 19.3675 2.07342 18.9558 2.04855C18.6229 2.02845 17.9771 2.04494 17.6062 2.05546C17.0467 2.07133 16.8392 2.1512 16.6258 2.1935C16.495 2.2194 16.3636 2.30678 16.2183 2.43057C16.1347 2.50182 16.0236 2.55458 15.9136 2.60092C15.8214 2.63974 15.74 2.68933 15.6479 2.73906C15.5401 2.79723 15.4425 2.80282 15.3469 2.82768C15.2752 2.84632 15.2085 2.82428 15.1696 2.80314C15.0695 2.7487 15.0455 2.61898 15.0348 2.59061C15.0032 2.50719 15.2644 2.64682 15.9176 2.66829C16.1151 2.67478 16.2138 2.71079 16.4109 2.74947C16.8065 2.82711 17.1344 2.90207 17.2864 2.91971C17.5745 2.95315 17.7863 2.98687 17.9666 3.02587C18.4551 3.13151 18.6929 3.33372 18.849 3.39078C19.0199 3.45324 19.1885 3.52499 19.8003 3.54688C19.9056 3.55065 19.8844 3.52584 19.3966 3.51862C18.9088 3.51139 17.955 3.51139 17.4426 3.5184C16.8223 3.52689 16.7249 3.57515 16.6009 3.61043C16.4459 3.65452 16.3143 3.66016 16.204 3.69895C16.1024 3.73468 15.9742 3.74517 15.7969 3.67111C15.6981 3.62987 15.6125 3.60363 15.4286 3.60692C15.2014 3.61099 15.4064 4.21231 15.442 4.31858C15.4896 4.46073 15.5764 4.6582 15.6614 4.82493C15.7219 4.94358 15.7813 5.12534 15.8811 5.25381C15.9457 5.33701 15.973 5.50831 16.0123 5.63626C16.046 5.74604 16.0865 5.86281 16.129 6.07481C16.1724 6.2913 16.2709 6.45789 16.2569 6.49732C16.2496 6.51785 16.2148 6.38946 16.2004 6.1391C16.1859 5.88874 16.1859 5.48196 16.1754 5.2689C16.1649 5.05584 16.1438 5.04883 16.119 5.05924C16.0586 5.08451 16.0091 5.18272 15.935 5.36943C15.6983 5.96608 15.7113 6.15355 15.6937 6.21008C15.6847 6.2391 15.6691 6.26662 15.5882 6.28107C15.3631 6.32129 15.1873 6.28851 15.1694 6.29191C15.1207 6.30118 15.3558 6.56267 15.5681 6.89889C15.69 7.09193 15.8799 7.3841 16.1029 7.76994C16.2589 8.03981 16.3202 8.15813 16.3593 8.2645C16.4267 8.44764 16.4546 8.70985 16.5258 8.97955C16.5521 9.07933 16.5685 9.2975 16.5755 9.5842C16.5793 9.73903 16.611 9.97738 16.625 10.3065C16.6386 10.6242 16.724 10.7582 16.7737 10.8855C16.8693 11.1307 16.951 11.2611 16.9898 11.3569C17.0311 11.4589 17.1555 11.6007 17.3188 11.7042C17.3968 11.7536 17.4892 11.729 17.5457 11.7468C17.5731 11.7554 17.6022 11.7435 17.6097 11.7188C17.67 11.5188 17.4683 11.2623 17.359 10.9761C17.2066 10.5771 17.107 10.4122 17.0469 10.2668C16.9798 10.1048 16.9655 9.91638 16.923 9.39622C16.8869 8.95444 16.9085 8.14665 16.919 7.73466C16.9296 7.32267 16.9506 7.32969 16.993 7.3824C17.1084 7.52587 17.2547 7.74667 17.4315 7.95527C17.5852 8.13676 17.7087 8.23634 17.7723 8.28235C17.8174 8.3149 17.8857 8.32156 18.1248 8.33219C18.672 8.35651 19.0549 8.32879 19.1043 8.32167C19.2936 8.29439 19.7326 8.46204 19.9473 8.55173C20.0571 8.59761 20.1526 8.63334 20.3259 8.71793C20.6056 8.85446 20.8114 8.92366 20.9813 8.9379C21.1247 8.94991 21.2152 9.01589 21.5051 9.1076C21.6471 9.15251 21.7465 9.19272 21.8424 9.24596C21.9424 9.30152 22.0653 9.30621 22.2847 9.32396C22.3687 9.33076 22.4409 9.41226 22.5258 9.47591C22.6316 9.55522 22.6324 9.73764 22.6538 10.0561C22.6598 10.1442 22.6893 10.4862 22.6753 10.989C22.6676 11.2635 22.5201 11.4234 22.4451 11.5482C22.37 11.673 22.2647 11.7431 22.1796 11.8175C22.1396 11.8524 21.9752 11.9129 21.689 11.9978C21.4027 12.0827 21.0828 12.0763 20.7893 12.0833C20.3986 12.0927 20.1895 12.1754 19.8294 12.2355C19.351 12.3154 18.9497 12.2253 18.8046 12.1829C18.5913 12.1205 18.4319 11.9777 18.3787 11.8854C18.3287 11.7987 18.2832 11.6942 18.2229 11.528C18.1624 11.3612 18.1344 11.2198 18.1129 10.9228C18.0958 10.686 18.0354 10.4347 18.0067 10.1855C17.9951 10.0851 17.9712 9.92382 17.9957 9.75029C18.0098 9.65082 18.2672 9.68175 18.7885 9.77303C19.166 9.83915 19.7585 10.0186 20.1042 10.1192C20.5306 10.2434 20.7047 10.3472 20.9061 10.4567C21.0082 10.5123 21.1145 10.5593 21.0565 10.6231C20.8442 10.8568 20.4516 10.8647 20.0504 10.9036C19.7414 10.9335 19.2145 10.9355 19.1784 10.9427C18.753 11.028 20.1245 10.9359 20.2091 10.9146C20.3498 10.9074 20.4786 10.9144 20.5529 10.9321C20.5851 10.9427 20.6061 10.9567 20.6278 10.9712" stroke="#CCCCCC" stroke-width="2.05841" stroke-linecap="round"/>
<path d="M4.88473 2.65678C4.60332 2.60383 4.35579 2.6213 4.22343 2.68299C4.08353 2.74818 3.83638 2.85003 3.45212 3.04872C3.20209 3.178 3.11154 3.27414 2.89565 3.51611C2.74128 3.68913 2.75839 3.84755 2.71404 3.95795C2.65567 4.10328 2.66996 4.27113 2.63025 4.4211C2.59828 4.54186 2.5466 4.6767 2.51986 4.99399C2.49785 5.25513 2.4317 5.42696 2.41397 5.54636C2.3728 5.82347 2.33481 6.28258 2.27286 6.80887C2.22581 7.20861 2.26386 7.98006 2.27697 8.40231C2.29468 8.9732 2.44017 9.10677 2.51509 9.29208C2.58689 9.46966 2.80921 9.88138 2.95191 10.1174C3.04234 10.267 3.27727 10.5268 3.52056 10.6778C3.68228 10.7782 3.87768 10.8805 4.05903 10.9735C4.33721 11.1163 4.74284 11.2781 4.89294 11.3398C5.06909 11.4122 5.21036 11.4634 5.36946 11.5251C5.66024 11.6379 6.05751 11.6842 6.2738 11.7282C6.44467 11.7629 6.70981 11.7901 6.97495 11.8341C7.41175 11.9065 7.5755 11.9135 7.95711 11.9445C8.23197 11.9668 8.74827 11.949 9.0269 11.9446C9.41414 11.9385 9.58748 11.8431 9.82548 11.7464C10.028 11.6642 10.1524 11.6138 10.443 11.4555C10.6395 11.3484 10.7348 11.2787 10.8452 11.2036C11.0109 11.091 11.1584 10.9345 11.2601 10.8331C11.3146 10.7788 11.3178 10.6438 11.2828 10.4765C11.2187 10.1693 10.9392 10.1493 10.7977 10.0785C10.5873 9.97317 10.4103 9.82314 10.0484 9.69475C9.80346 9.60785 9.63301 9.54041 9.49601 9.44312C9.37367 9.35623 9.11307 9.29314 8.90063 9.21809C8.68833 9.14309 8.56507 9.10783 8.40637 9.03715C8.24722 8.96626 8.10655 8.87857 7.91661 8.76367C7.80992 8.69914 7.60409 8.62284 7.44869 8.52978C7.31296 8.44851 7.00526 8.13943 6.79122 7.88145C6.69503 7.7655 6.62351 7.64332 6.53522 7.48011C6.41274 7.25369 6.41172 6.98254 6.31907 6.79153C6.26278 6.6755 6.23488 6.47054 6.26559 6.30614C6.29207 6.16438 6.41967 6.08986 6.65753 5.93565C6.78235 5.85472 6.91366 5.81612 7.08997 5.72823C7.41714 5.56514 7.50508 5.48097 7.63744 5.41902C7.76771 5.35805 7.9546 5.3396 8.2458 5.25594C8.58966 5.15716 9.08448 5.03092 9.27417 4.95586C9.46026 4.88223 9.58748 4.76618 9.88266 4.67353C10.1071 4.60309 10.4595 4.22983 10.6468 4.02506C10.7639 3.89706 10.7089 3.22702 10.564 2.80741C10.517 2.67149 10.3388 2.67478 10.2328 2.6041C10.0743 2.49847 9.80986 2.3571 9.67683 2.33473C9.55809 2.31476 9.2555 2.20673 8.80519 2.16278C8.23046 2.1067 7.79734 2.16252 7.68298 2.18886C7.34885 2.26582 7.03861 2.38304 6.82696 2.43599C6.65336 2.47941 6.50915 2.53288 6.39412 2.58596C6.25766 2.64893 5.94632 2.99828 5.66636 3.44066C5.56124 3.60676 5.57304 4.03896 5.58178 4.54182C5.5849 4.72163 5.60799 4.74765 5.66941 4.77863C5.82909 4.85916 6.29312 4.87181 6.88811 4.84547C7.26687 4.8287 7.49581 4.73971 7.72441 4.62561C8.33478 4.32095 8.51954 3.93756 8.64794 3.80427C8.67274 3.77852 8.71385 3.77766 8.77554 3.77316C8.92426 3.76231 8.54284 3.76866 7.78 3.72061C7.36768 3.69464 7.26761 3.45998 7.1318 3.43351C6.83545 3.37574 6.55336 3.43324 6.40365 3.46832C6.12438 3.53376 6.04109 3.76813 5.94407 4.01037C5.86968 4.19608 5.68847 4.33255 5.46384 4.58365C5.02056 5.07917 4.86779 5.5498 4.80981 5.7052C4.79887 5.73452 4.80531 5.77111 4.81842 5.79348C4.83152 5.81585 4.85773 5.82459 4.88434 5.80725C4.95195 5.76319 4.96415 5.4304 4.95542 4.95891C4.94524 4.40939 4.72695 3.99157 4.57645 3.80864C4.50904 3.72671 4.37327 3.81261 4.28101 3.8784C4.12957 3.98638 4.02038 4.1475 3.93672 4.2882C3.83913 4.45235 3.8258 4.86863 3.8389 5.37997C3.85048 5.83201 4.02805 6.05279 4.11674 6.29172C4.17452 6.44737 4.36268 6.84541 4.50047 7.10366C4.5716 7.23696 4.78599 7.54325 5.07243 7.94856C5.39885 8.41043 5.36126 8.67419 5.42267 8.78075C5.43666 8.80501 5.48409 8.78115 5.50209 8.68928C5.55348 8.42708 5.50262 8.17279 5.38879 7.96643C5.17973 7.58745 4.85905 7.36085 4.65256 7.2114C4.35789 6.99815 4.09132 6.87506 3.93288 6.84858C3.77635 6.82243 3.63227 6.84832 3.52651 6.8965C3.27817 7.00964 3.40222 7.63908 3.47237 8.06928C3.50719 8.28276 3.65769 8.42746 3.74135 8.53309C3.82175 8.63461 4.08815 8.94608 4.47175 9.33431C4.64489 9.50954 4.8482 9.48693 5.05536 9.47383C5.18949 9.46534 5.31625 9.31141 5.46172 9.12649C5.77953 8.72251 5.56431 8.06663 5.55107 8.04413C5.49599 7.95049 5.65141 8.45235 5.88014 8.87923C6.12063 9.32807 6.35772 9.6185 6.55534 9.79005C6.83378 10.0318 7.11671 10.122 7.32294 10.1617C7.68868 10.2322 7.95539 10.1665 7.9951 10.1358C8.0155 10.12 8.0086 10.0789 7.9955 10.0521C7.93102 9.92057 7.73593 9.7702 7.35762 9.6373C6.99331 9.50932 6.61557 9.63677 6.39531 9.68508C6.21593 9.72443 6.12051 9.85703 6.06757 9.97576C6.00808 10.1092 6.06704 10.2541 6.14156 10.3685C6.37482 10.7265 6.80724 10.7397 7.20222 10.8013C7.47292 10.8436 7.89424 10.8455 8.16705 10.8458C8.73492 10.8464 8.90817 10.6962 9.15914 10.4805C9.27827 10.44 9.35848 10.4225 9.4113 10.3829C9.4379 10.3608 9.46411 10.3346 9.49112 10.3076" stroke="#CCCCCC" stroke-width="2.05841" stroke-linecap="round"/>
<path d="M5.77243 1.67836C5.6674 1.67836 5.02255 1.63898 4.10779 1.58587C3.62569 1.55788 3.36011 1.65131 3.04206 1.69149C2.7581 1.72736 2.53823 1.92978 2.27926 2.12848C2.09026 2.2735 1.82218 2.40635 1.66882 2.59273C1.53964 2.74972 1.46335 2.91078 1.33725 3.19541C1.20927 3.48426 1.23739 3.8504 1.17136 4.14399C1.12393 4.35484 1.02576 4.56805 0.985581 4.97859C0.958525 5.25504 0.853111 5.45676 0.826457 5.85377C0.816303 6.00503 0.760023 6.34308 0.746895 6.80693C0.740362 7.03776 0.680461 7.61368 0.687025 8.43556C0.690712 8.89718 0.839585 9.15559 0.978222 9.38851C1.07109 9.54454 1.15704 9.73958 1.34938 10.0841C1.47908 10.3164 1.56837 10.4954 1.67459 10.6748C1.79251 10.874 1.91288 11.0659 2.03918 11.2517C2.15293 11.419 2.45549 11.5958 2.67548 11.7426C2.85839 11.8646 3.053 11.9546 3.23241 12.0278C3.43454 12.1102 3.64971 12.1535 3.86214 12.2597C4.08039 12.3688 4.29973 12.4582 4.46562 12.5119C4.71488 12.5926 5.10729 12.6579 5.34737 12.7106C5.63695 12.7742 5.87745 12.9229 6.10957 12.9694C6.40334 13.0283 6.59351 13.0422 7.49932 13.0688C7.695 13.0746 7.74715 13.1082 8.11553 13.1218C9.16592 13.1603 9.94863 13.0959 10.0877 13.0297C10.287 12.9347 10.5056 12.8966 10.6649 12.857C10.8279 12.8165 10.9829 12.7247 11.2015 12.6384C11.6398 12.4654 12.057 12.2872 12.2494 12.0688C12.4405 11.8517 12.5081 11.5846 12.6078 11.3857C12.718 11.1657 12.6943 10.3832 12.6152 9.9534C12.5764 9.74311 12.4031 9.55579 12.2969 9.39647C12.1806 9.22197 11.9926 9.03864 11.7867 8.95192C11.6083 8.87676 11.4094 8.74665 11.1769 8.71303C10.8732 8.66912 10.5342 8.53422 10.2555 8.45465C9.9353 8.36322 9.63277 8.40135 9.41318 8.32218C9.13839 8.22312 8.9557 8.16266 8.71065 8.0835C8.42067 7.98982 8.05585 7.92398 7.79529 7.83825C7.49331 7.7389 7.20534 7.48718 7.00643 7.36088C6.8011 7.23049 6.6484 7.08937 6.54179 6.89047C6.51581 6.84199 6.52827 6.78465 6.54796 6.73791C6.63541 6.53032 6.91175 6.43935 7.0846 6.40573C7.28489 6.36678 7.75829 6.33274 8.15809 6.25357C8.5054 6.1848 8.8475 6.14736 9.07982 6.10081C9.47821 6.021 9.74893 6.01449 9.96196 5.94845C10.1791 5.88114 10.3464 5.86889 10.5453 5.74975C10.7902 5.60311 11.1285 5.43209 11.3014 5.23279C11.3692 5.1546 11.487 5.0868 11.593 4.98098C11.7506 4.82361 11.7125 4.53066 11.8056 4.0877C12.0066 3.13142 11.621 2.92589 11.5343 2.75304C11.4419 2.56897 11.2893 2.39521 10.8727 1.97831C10.6639 1.76927 10.4276 1.78497 10.2551 1.68532C10.0389 1.56035 9.64709 1.50651 9.02333 1.46633C8.71054 1.44618 8.47833 1.34738 7.58604 1.3269C7.15167 1.31692 6.72876 1.41262 5.60435 1.44624C5.33563 1.46593 5.24254 1.49258 5.1236 1.51247C5.05716 1.51924 4.9784 1.51924 4.81768 1.5988" stroke="#A0A0A0" stroke-width="1.37227" stroke-linecap="round"/>
<path d="M18.0648 0.685547C17.7486 0.698675 17.1912 0.777839 16.9518 0.811454C16.5912 0.862071 16.0638 0.964014 15.0323 1.14223C14.5478 1.22595 14.2475 1.48037 14.0937 1.68584C13.9498 1.87808 13.994 2.05083 13.9742 2.57673C13.9563 3.04984 13.9674 3.94281 13.9805 4.4355C13.9998 5.15905 14.179 5.44494 14.2192 5.65737C14.2795 5.97605 14.3119 6.39969 14.3781 6.62525C14.4668 6.92718 14.6301 7.142 14.7427 7.42723C14.8779 7.76967 14.8951 8.00445 14.9683 8.22981C15.0391 8.44772 15.0813 8.91703 15.1208 9.21121C15.1535 9.45374 15.2269 9.66173 15.3064 9.86083C15.4153 10.1333 15.386 10.338 15.4061 10.6165C15.4282 10.9236 15.6644 11.2267 15.7703 11.4387C15.9642 11.8274 16.3797 12.0756 16.6582 12.1819C16.9412 12.2898 17.2811 12.4074 17.4675 12.487C17.6185 12.5514 17.8118 12.6063 18.0505 12.6529C18.2318 12.6882 18.3827 12.6859 19.0134 12.7257C19.6037 12.7629 20.7469 12.7392 21.3615 12.7261C22.164 12.7089 22.584 12.5283 22.8775 12.309C23.0788 12.1586 23.2356 12.0502 23.3818 11.8648C23.5223 11.6866 23.5148 11.3357 23.5809 10.8329C23.687 10.025 23.6206 9.42463 23.6604 9.22692C23.7357 8.85268 23.6477 8.56258 23.5817 8.47665C23.4243 8.27187 23.2109 8.13891 23.0184 7.99252C22.7762 7.80842 22.6007 7.75383 22.4083 7.65418C22.2551 7.57481 22.0573 7.55493 21.7788 7.51475C21.4701 7.47021 21.1288 7.3958 20.6735 7.33573C19.507 7.18183 19.3386 7.1969 18.717 7.15672C18.4514 7.13955 18.3043 6.99799 18.112 6.85876C17.8983 6.70406 17.6678 6.48084 17.5546 6.32192C17.3382 6.018 17.4816 5.49984 17.4351 5.22237C17.3633 4.79448 17.4677 4.47827 17.5536 4.43192C17.6456 4.38233 18.2713 4.38518 19.1725 4.40487C19.772 4.41797 19.9998 4.59681 20.2056 4.63699C20.4796 4.69046 20.9537 4.75594 21.3388 4.79612C21.6112 4.82454 21.8695 4.91506 22.0489 4.94868C22.2687 4.98986 22.611 5.02167 22.8248 4.92938C23.0023 4.85277 22.8258 4.58488 22.7461 4.35972C22.624 4.01528 22.5474 3.80278 22.1374 3.18101C21.9169 2.84659 21.8313 2.67539 21.7185 2.51607C21.5252 2.243 21.2219 1.85352 20.8179 1.56172C20.6293 1.42551 20.3737 1.32284 19.9956 1.11717C19.7616 0.989866 19.2622 1.00379 18.9406 0.964213C18.7573 0.941648 18.4515 0.844671 18.2246 0.765507C18.1846 0.738853 18.1452 0.712598 18.0921 0.699072C18.039 0.685547 17.9733 0.685547 17.9057 0.685547" stroke="#A0A0A0" stroke-width="1.37227" stroke-linecap="round"/>
<path d="M14.961 15.842C14.8559 15.8158 14.7362 15.8022 14.6171 15.8088C14.3385 15.8241 14.1001 16.3974 13.6961 16.8349C13.4688 17.0812 13.0809 17.5621 12.6614 18.24C12.297 18.8289 12.6266 19.9649 12.6998 20.2104C12.7671 20.4361 12.8916 20.6412 13.0708 20.8801C13.1332 20.9633 13.131 21.0529 13.1113 21.1323C13.0602 21.3382 12.6815 21.3183 12.4229 21.3978C11.9208 21.5523 11.7395 21.4774 11.4746 21.504C11.1897 21.5327 10.8778 21.623 10.6258 21.7093C10.3467 21.8049 9.95174 22.0725 9.62454 22.3124C9.51002 22.3964 9.39203 22.4453 9.31923 22.5377C9.16309 22.7361 9.15294 23.5786 9.35085 24.1552C9.45807 24.4676 10.1825 24.4212 10.5843 24.5007C10.8343 24.5503 11.364 24.5938 12.4924 24.6599C13.3385 24.7094 14.9809 24.6734 15.8525 24.6603C16.8852 24.6447 17.1211 24.5413 17.4988 24.5011C17.9583 24.4523 18.4076 24.3822 18.6861 24.342C18.9317 24.3066 19.2422 24.2231 19.5018 24.13C19.7972 24.024 20.2367 24.0369 20.5029 23.9709C20.8001 23.8971 21.0467 23.8913 21.239 23.8117C21.3196 23.7784 21.4707 23.772 21.7677 23.6665C22.7739 23.3093 23.2609 22.884 23.4733 22.7182C23.7216 22.5242 23.9507 22.3271 24.1299 21.9896C24.2777 21.7112 24.362 21.4519 24.4617 21.2926C24.5765 21.109 24.654 20.829 24.6544 19.8901C24.6545 19.6325 24.5486 19.542 24.4627 19.4692C24.2344 19.2758 23.7152 19.2632 23.4484 19.2236C23.2898 19.2001 22.6311 19.1836 21.7562 19.1902C21.312 19.1935 21.1016 19.2759 20.6779 19.3161C20.4888 19.334 19.7808 19.3825 18.8195 19.3628C18.4878 19.356 18.4752 19.3038 18.4619 19.2506C18.3992 19.0008 18.3296 18.7603 18.296 18.4423C18.2211 17.7332 18.2365 16.6647 18.1771 16.5786C18.1502 16.5397 18.1045 16.5318 18.0842 16.5054C17.9931 16.3867 17.9191 16.1746 17.7132 16.0149C17.5676 15.9019 17.3884 15.8293 16.8527 15.7957C16.5514 15.7768 16.3939 15.7099 15.277 15.6895C15.0409 15.696 15.0015 15.7091 14.9484 15.7159C14.8953 15.7227 14.8297 15.7227 14.6825 15.8022" stroke="#A0A0A0" stroke-width="1.37227" stroke-linecap="round"/>
<path d="M6.90963 3.31808C6.69003 3.27416 6.44515 3.25153 6.21257 3.26251C5.39517 3.3011 4.62581 4.82465 4.51435 5.18C4.45974 5.35409 4.44747 5.82083 4.50237 6.44136C4.52469 6.69361 4.66707 6.79837 4.74559 6.81101C4.82412 6.82366 4.86804 6.73582 4.89066 6.36117C4.91329 5.98652 4.91329 5.32773 4.91329 4.64897" stroke="#CCCCCC" stroke-width="1.37227" stroke-linecap="round"/>
<path d="M31.4955 4.86662C31.0977 4.94107 30.1945 5.31558 29.8858 5.75494C29.7617 5.93157 29.7283 6.55339 29.7407 7.36783C29.7477 7.82817 29.9276 8.17324 30.0975 8.32608C30.1335 8.35844 30.1539 8.17775 30.1667 7.60528C30.1795 7.0328 30.1795 6.00292 30.2167 5.43515C30.2594 4.78469 30.4051 4.66659 30.4051 4.6162C30.4051 4.45226 30.3051 5.02831 30.1363 5.6224C30.0587 5.8954 30.0795 6.08188 30.0419 6.44868C30.0095 6.76444 30.0291 7.34903 30.0539 7.7177C30.1094 8.54174 30.3299 8.95157 30.4047 9.27719C30.4767 9.59029 30.6676 9.95401 30.7183 10.5109C30.7613 10.9827 30.8307 11.6333 30.8687 12.0469C30.8957 12.3411 31.0308 12.6861 31.1193 12.9124C31.216 13.1594 31.382 13.4388 31.4951 13.5894C31.5999 13.7289 31.6331 13.9397 31.727 14.1345C31.8451 14.3798 31.946 14.6037 32.134 14.8613C32.2942 15.0808 32.3603 15.2685 32.4726 15.6565C32.5477 15.9161 32.698 16.1453 32.7924 16.3841C32.9177 16.7011 33.174 16.9477 33.5184 17.3112C33.7117 17.5151 33.9012 17.7005 34.0892 17.8571C34.2596 17.9991 34.49 18.0765 34.7032 18.1269C35.0091 18.1992 35.1796 18.3277 35.3925 18.4025C35.7258 18.5197 35.9317 18.5533 36.1009 18.6157C36.4289 18.7367 36.8213 18.8037 37.0593 18.8477C37.2676 18.8862 37.4857 18.8789 37.8096 18.9165C38.8585 19.0383 39.0397 19.0045 39.3838 19.0669C39.8488 19.1513 40.452 19.1549 40.9198 19.2173C41.0323 19.2323 41.1209 19.2549 41.5806 19.2925C42.0018 19.327 42.8096 19.3053 43.2499 19.2991C43.8545 19.2906 44.0782 19.1805 44.279 19.1425C44.7003 19.0628 45.4063 19.0301 45.8133 18.8799C46.3628 18.6771 46.9705 18.5548 47.3371 18.4033C47.5978 18.2955 47.9496 18.178 48.6266 17.8776C48.9016 17.7556 49.104 17.514 49.3299 17.3756C49.6179 17.1993 49.8439 17.0748 50.0632 16.8684C50.2702 16.6735 50.7306 16.1634 51.0848 15.8342C51.3446 15.5927 51.5488 15.3204 51.6804 15.095C51.8065 14.879 51.8623 14.694 51.9312 14.4684C52.032 14.1378 52.1256 13.9547 52.2008 13.7225C52.3 13.4162 52.3384 13.1523 52.3764 12.9577C52.4246 12.7106 52.4888 12.3627 52.5206 12.0745C52.5444 11.858 52.6888 11.5114 52.7462 10.9474C52.7628 10.7833 52.79 10.6331 52.8088 9.94912C52.8248 9.36461 52.8152 8.29732 52.8027 7.72898C52.7846 6.89677 52.6903 6.44661 52.6273 6.20239C52.5687 5.97496 52.5399 5.69459 52.3771 5.51279C52.243 5.36303 52.1263 5.20578 51.9199 5.01139C51.7745 4.87444 51.5875 4.91701 51.022 4.87941C50.5194 4.846 49.5755 4.86662 49.0649 4.87283C48.4031 4.88087 48.2038 4.95386 48.0342 5.02304C47.839 5.10268 47.6774 5.27948 47.1083 5.82958C46.8483 6.0809 46.5373 6.36915 46.0987 6.80156C45.8858 7.01148 45.6718 7.1723 45.3277 7.49736C45.0703 7.74059 44.7445 7.93635 44.3755 8.21196C44.1378 8.38945 43.8921 8.46351 43.6488 8.56315C42.8394 8.89471 42.3885 9.10273 42.1937 9.12792C42.0588 9.14537 41.8372 9.19071 41.5868 9.20312C41.4313 9.21082 40.8882 9.26591 40.1052 9.2535C39.6018 9.24553 39.3548 9.14108 39.1356 9.1031C38.8513 9.05385 38.5276 9.01549 38.2898 8.89667C38.0142 8.75899 37.8508 8.7395 37.6442 8.64606C37.2563 8.47066 36.9612 8.21384 36.7604 8.05705C36.489 7.84516 36.0595 7.6002 35.7892 7.45525C35.5756 7.34074 35.4444 7.18584 35.2626 7.05424C35.1142 6.94683 34.6577 6.56242 34.2415 6.2086C33.9499 5.96072 33.7027 5.78258 33.5265 5.65662C33.3429 5.52532 33.0883 5.35619 32.9249 5.24301C32.7448 5.11825 32.4619 4.98018 32.2733 4.8732C32.0599 4.81662 31.9099 4.79142 31.6724 4.72901C31.5478 4.71622 31.3369 4.71622 31.1195 4.71622" stroke="#CCCCCC" stroke-width="2.05841" stroke-linecap="round"/>
<path d="M31.5312 5.39258C31.7193 6.04382 31.7689 6.26868 31.8753 7.29179C31.9235 7.75553 32.0306 8.4247 32.1003 8.8009C32.2099 9.39201 32.4698 9.77683 32.6213 10.1854C32.7356 10.4935 32.7465 10.8312 32.7907 11.138C32.8027 11.2212 32.8465 11.2944 32.8719 11.3141C32.9048 11.3397 32.9225 10.824 32.8977 10.0543C32.8868 9.71818 32.8232 9.49557 32.7108 9.16337C32.4485 8.38839 32.2208 7.9122 32.1957 7.89923C32.0945 7.84715 32.2581 8.23632 32.3575 8.95807C32.4383 9.54422 32.6059 10.5732 32.7014 11.1472C32.8465 12.0191 33.0721 12.3352 33.2601 12.7044C33.4317 13.0413 33.5865 13.2752 33.7303 13.5134C33.9034 13.8001 34.0001 14.1652 34.0439 14.2534C34.0524 14.2704 34.0753 14.1678 34.0817 13.8563C34.0881 13.5448 34.0881 13.0112 34.0137 12.1532C33.9392 11.2951 33.7903 10.1288 33.7012 9.47828C33.5657 8.4892 33.5121 8.11337 33.4803 7.93759C33.4415 7.72322 33.4113 7.54936 33.3365 7.37978C33.2481 7.17961 33.1609 7.01016 33.1045 6.85337C33.0883 6.80835 33.0608 6.75974 33.0605 6.75899C33.036 6.71011 33.4207 7.24366 34.0892 8.00639C34.4326 8.39812 34.8446 8.74431 35.1298 8.99172C35.8015 9.57444 36.1795 9.79036 36.5619 10.0539C37.0809 10.4117 37.4075 10.6431 37.6344 10.7567C37.8602 10.8067 38.0354 10.8947 38.1668 10.9135C38.2238 10.9199 38.261 10.9199 38.2994 10.9199" stroke="#CCCCCC" stroke-width="2.05841" stroke-linecap="round"/>
<path d="M61.1416 6.35987C61.1416 6.30177 61.1416 5.93778 61.1707 5.43163C61.1807 5.25739 61.2578 5.25954 61.3168 5.29585C61.5993 5.46976 61.5958 5.91797 61.7133 6.19746C61.8413 6.50181 61.9189 6.7111 62.0507 6.90189C62.1987 7.11616 62.2701 7.53062 62.5271 7.88471C62.6956 8.11675 62.9162 8.33959 63.0921 8.49386C63.3473 8.71782 63.5324 8.76564 64.0852 8.80965C64.5786 8.84893 65.5095 8.82462 66.0174 8.81009C66.5849 8.79386 67.1081 8.73659 67.8413 8.72206C68.2974 8.71303 68.5781 8.56054 68.8283 8.48769C69.2392 8.36809 69.5464 8.12128 69.7676 7.95227C69.9329 7.82596 70.1194 7.75421 70.3395 7.55637C70.5986 7.32341 70.8386 7.03591 70.9634 6.85194C71.0813 6.67811 71.3078 6.58082 71.4768 6.36801C71.615 6.19398 71.7479 5.97959 71.9095 5.76657C72.2132 5.36604 72.5551 5.08436 72.7457 4.94462C72.8335 4.88024 72.8927 4.80488 73.0314 4.78287C73.4767 4.71218 73.6845 4.98049 73.8243 5.11957C73.8612 5.15635 73.9046 5.18559 73.9053 5.1933C73.9178 5.3395 73.5983 4.98137 73.422 4.90039C73.2332 4.81364 73.0701 4.70233 72.8067 4.65083C72.4638 4.58381 72.1894 4.6724 72.1088 4.7382C72.0685 4.77118 72.0428 4.81852 72.0351 4.86275C72.0274 4.90699 72.0419 4.95056 72.0857 5.00932C72.3216 5.32574 72.8624 5.30267 73.1051 5.47168C73.3279 5.62681 73.5234 5.87484 73.8894 6.30683C74.0643 6.51327 74.0956 6.75511 74.2059 6.93864C74.3351 7.15378 74.3597 7.44436 74.4622 7.64946C74.5067 7.73837 74.5357 7.79646 74.5507 7.53591C74.5657 7.27535 74.5657 6.69437 74.5657 6.09579" stroke="#CCCCCC" stroke-width="4.11682" stroke-linecap="round"/>
<path d="M33.8935 3.90047C33.6725 3.76788 33.4703 3.67748 32.6955 3.644C32.0097 3.61436 30.7275 3.63262 30.0231 3.66576C29.3186 3.69891 29.2302 3.7652 29.1626 3.8325C28.9028 4.09098 28.7601 4.47902 28.5706 5.1145C28.4065 5.66509 28.4026 7.32628 28.4692 8.15126C28.5162 8.73336 28.87 9.43292 28.9825 10.0697C29.1 10.735 29.2945 11.2409 29.3621 11.7669C29.4055 12.1044 29.6521 12.3806 29.7304 12.7493C29.8126 13.1359 29.8757 13.452 30.009 13.743C30.1383 14.0254 30.2548 14.3667 30.3662 14.7471C30.4848 15.1516 30.6793 15.4609 30.7905 15.8185C30.892 16.1452 31.0797 16.4211 31.2923 16.6893C31.5271 16.9854 31.594 17.3586 32.1056 17.8937C32.4324 18.2354 32.8208 18.2747 33.4328 18.7638C34.2625 19.427 34.6288 19.413 34.9746 19.5135C35.4156 19.6416 35.9881 19.8804 36.4478 19.9936C36.968 20.1217 37.4419 20.1496 38.5588 20.2166C39.6078 20.2795 41.6424 20.2394 42.7229 20.2283C44.0065 20.2152 44.5366 20.1054 45.0522 19.9722C45.6409 19.82 45.9454 19.6595 46.2247 19.47C46.5938 19.2195 47.2392 19.1907 47.5639 19.0458C47.8932 18.8988 48.3548 18.7233 48.869 18.4324C49.2368 18.2243 49.5829 17.9425 49.8966 17.751C50.2032 17.5639 50.4989 17.2716 50.756 17.0262C51.1836 16.6181 51.7712 15.9993 52.2721 15.5768C53.2334 14.7658 53.2899 14.3708 53.4349 14.0577C53.6947 13.4967 53.7145 12.6083 53.7811 12.1831C53.7987 12.0704 53.8256 11.9387 53.837 10.7213C53.8484 9.5039 53.8484 7.20575 53.8263 5.9887C53.8042 4.77165 53.76 4.70536 53.7151 4.63806C53.4777 4.28187 52.8694 4.03439 52.5101 3.90114C52.1528 3.76859 51.7069 3.67815 51.0942 3.62157C50.6777 3.58311 50.3235 3.47726 47.7983 3.46487C46.9961 3.46094 46.7075 3.83217 45.9943 4.56675C45.3324 5.24853 45.1888 5.79551 45.01 6.16481C44.8703 6.45327 44.3665 7.02093 43.9168 7.33733C43.4039 7.69821 42.5116 7.60484 41.62 7.67248C41.4161 7.68794 41.3063 7.73877 40.6638 7.76154C38.8511 7.82577 37.5771 7.74011 37.4435 7.65105C37.1691 7.46807 36.8854 7.27271 36.651 6.97071C36.4206 6.67384 36.2827 6.33523 35.9372 5.93312C35.6123 5.55503 35.2113 5.10713 34.9324 4.78337C34.7319 4.55055 34.4975 4.34778 34.1737 4.11341C34.0288 4.01296 33.6511 3.96743 33.1492 3.94533C32.9567 3.92323 32.8904 3.87904 32.7551 3.8335" stroke="#A0A0A0" stroke-width="1.37227" stroke-linecap="round"/>
<path d="M60.2434 3.23157C59.1285 3.49876 58.639 3.89852 58.247 4.42385C57.9481 4.8243 57.7886 5.10519 57.7437 5.77348C57.733 5.93269 57.6774 6.0199 57.6547 6.8941C57.6319 7.7683 57.6319 9.42562 57.643 10.3236C57.6573 11.4919 57.7658 12.0666 57.8991 12.7048C57.9871 13.1263 58.256 13.4528 58.3236 14.0216C58.3651 14.3708 58.5908 14.6139 58.714 14.8931C58.8574 15.2181 59.0368 15.5728 59.1938 15.8865C59.3519 16.2024 59.4841 16.533 59.8835 17.1675C60.7642 18.5664 61.3135 18.4763 61.6929 18.5988C62.1376 18.7425 62.5403 19.079 62.865 19.1684C63.2098 19.2633 63.921 19.5678 64.4939 19.771C64.6116 19.8128 64.7715 19.8156 65.7903 19.8269C66.8091 19.8383 68.6874 19.8383 69.7213 19.8162C71.2144 19.7843 71.6927 19.3924 72.1943 19.1807C72.5773 19.0192 72.8311 18.8125 73.2101 18.7227C73.8329 18.5753 74.1476 18.1884 74.5052 17.8974C74.8419 17.6234 75.2632 17.3406 75.5434 16.9716C75.9934 16.3793 75.9797 15.6893 76.2241 15.0418C76.4267 14.5051 76.5154 13.9711 76.6265 13.512C76.7506 12.9996 76.7384 12.6968 76.7718 11.3803C76.8025 10.1746 76.7832 7.87611 76.7611 6.63696C76.737 5.28592 76.583 5.0851 76.4494 4.91803C76.2075 4.61546 75.9583 4.37128 75.2237 3.60288C74.8776 3.24087 74.5748 2.96506 74.3066 2.76351C74.0244 2.55141 73.6601 2.38383 73.1703 2.30548C71.8898 2.10067 71.5615 2.40525 71.2712 2.51675C70.803 2.69656 70.2249 3.36148 69.6088 4.38869C69.353 4.81535 69.3062 5.10519 69.1612 5.38443C68.9976 5.69953 68.749 6.0199 68.4698 6.29981C68.1696 6.60071 67.6776 6.55694 66.9565 6.63529C65.4725 6.79649 64.3074 6.49199 64.073 6.18028C63.7287 5.72227 63.8594 5.17617 63.7262 4.83968C63.6075 4.54001 63.4135 4.30432 63.2574 4.03613C63.0821 3.73466 62.634 3.41237 62.3092 3.18738C62.0403 3.00105 61.718 3.00926 61.1846 2.90814C60.8521 2.89676 60.2555 2.89676 59.915 2.92991C59.5745 2.96305 59.5082 3.02935 59.4399 3.09765" stroke="#A0A0A0" stroke-width="1.37227" stroke-linecap="round"/>
<path d="M35.0312 12.2037C35.3855 12.2037 36.1455 12.1153 36.492 11.9475C36.7716 11.8468 36.9946 11.8019 37.1727 11.7798C37.2624 11.7577 37.3508 11.7135 37.4419 11.668" stroke="#A0A0A0" stroke-width="1.37227" stroke-linecap="round"/>
<path d="M44.2725 12.0703C44.6481 12.0703 45.0238 12.0703 45.2505 12.0924C45.4771 12.1145 45.5434 12.1587 45.8206 12.1815C46.0979 12.2042 46.584 12.2042 47.0849 12.2042" stroke="#A0A0A0" stroke-width="1.37227" stroke-linecap="round"/>
<path d="M37.2412 14.5485C37.3966 14.6369 37.6644 14.9489 38.1318 15.3949C38.4135 15.6636 39.222 15.6868 40.1367 15.6426C40.4793 15.6261 40.5652 15.5101 40.6329 15.3982C40.8868 14.9784 40.9463 14.7279 41.0129 14.5719C41.0447 14.4974 41.1237 14.4601 41.2131 14.4705C41.6561 14.5219 41.8603 15.0159 42.1392 15.4059C42.2495 15.5602 42.4603 15.7498 42.7948 15.8522C43.1292 15.9547 43.5933 15.9547 43.9207 15.8663C44.425 15.6011 44.6292 15.3306 44.6958 15.1525C44.7404 15.0627 44.8067 14.9744 44.875 14.8833" stroke="#A0A0A0" stroke-width="1.37227" stroke-linecap="round"/>
<path d="M71.9629 11.1995C72.0727 11.2664 72.6526 11.1338 72.9995 10.8988C73.3661 10.6504 73.791 10.5098 74.1047 10.2737C74.172 10.2399 74.2383 10.2178 74.3056 10.1733C74.3729 10.1287 74.4392 10.0624 74.5075 9.99414" stroke="#A0A0A0" stroke-width="1.37227" stroke-linecap="round"/>
<path d="M61.7842 10.1953C61.9844 10.3734 62.4726 10.5516 62.9878 10.808C63.4348 11.11 63.9022 11.3102 64.3368 11.4776C64.5283 11.5346 64.6609 11.5346 64.9314 11.6685" stroke="#A0A0A0" stroke-width="1.37227" stroke-linecap="round"/>
<path d="M66.2705 15.0173C66.4252 14.9958 66.8718 14.7722 67.5395 14.3275C68.4409 13.7272 68.8352 13.6124 69.1599 13.4219C69.3116 13.3329 69.5061 13.299 69.7285 13.232C70.0268 13.1422 70.3318 13.2756 70.5655 13.4423C71.0021 13.8782 71.136 14.0791 71.2472 14.2238C71.3141 14.3021 71.4025 14.3905 71.5606 14.6155" stroke="#A0A0A0" stroke-width="1.37227" stroke-linecap="round"/>
</svg>
