<svg width="40" height="40" viewBox="0 0 40 40" fill="none" xmlns="http://www.w3.org/2000/svg">
<circle cx="20.0003" cy="19.9993" r="13.3333" fill="#1A1A1A"/>
<path d="M20 0C31.0457 0 40 8.9543 40 20C40 31.0457 31.0457 40 20 40C8.9543 40 0 31.0457 0 20C0 8.9543 8.9543 0 20 0ZM28.2383 11.7617C27.3705 10.8939 25.9626 10.8941 25.0947 11.7617L20 16.8564L14.9053 11.7617C14.0374 10.8941 12.6295 10.8939 11.7617 11.7617C10.8939 12.6295 10.8941 14.0374 11.7617 14.9053L16.8564 20L11.7617 25.0947C10.8939 25.9626 10.8939 27.3704 11.7617 28.2383C12.6296 29.1061 14.0374 29.1061 14.9053 28.2383L20 23.1436L25.0947 28.2383C25.9626 29.1061 27.3704 29.1061 28.2383 28.2383C29.1061 27.3704 29.1061 25.9626 28.2383 25.0947L23.1436 20L28.2383 14.9053C29.1059 14.0374 29.1061 12.6295 28.2383 11.7617Z" fill="#FCFCFC"/>
</svg>
