<svg width="130" height="43" viewBox="0 0 130 43" fill="none" xmlns="http://www.w3.org/2000/svg">
<path d="M123.912 12.7324C123.912 13.7308 124.009 14.76 124.071 15.176C124.111 15.4432 124.157 15.6902 124.193 16.8294C124.227 17.8714 124.206 19.8569 124.182 20.9279C124.151 22.2975 123.914 22.7794 123.705 23.148C123.508 23.4955 123.254 24.0998 123.082 24.5656C122.869 25.1412 122.642 25.6169 122.47 26.0328C122.271 26.5166 122.128 26.9373 121.884 27.3169C121.548 27.8372 120.784 28.4543 120.466 28.5893C120.116 28.7374 119.757 29.0412 119.366 29.1152C118.962 29.1915 118.632 29.2862 118.326 29.3962C117.948 29.5325 117.557 29.628 115.582 29.7021C114.713 29.7347 114.157 29.873 113.163 29.9464C112.244 30.0142 110.475 29.9713 109.516 29.935C108.272 29.8879 107.995 29.5326 107.629 29.2271C106.931 28.6448 106.797 28.2856 105.919 27.395C105.667 27.1396 105.476 27.0378 105.378 26.9883C105.224 26.9105 105.597 27.3297 105.598 27.4519C105.598 27.5733 105.088 27.5505 104.55 27.5142C104.28 27.496 104.204 27.1852 104.033 26.8914C103.856 26.5862 103.449 26.1597 103.153 25.7911C102.927 25.5092 102.836 25.1312 102.64 24.8253C102.427 24.4932 102.322 24.1776 102.248 23.8229C102.158 23.3944 101.832 22.665 101.71 22.1361C101.575 21.5493 101.564 21.1465 101.466 20.8028C101.378 20.4968 101.148 20.2163 100.965 19.9104C100.769 19.5849 100.635 19.2627 100.439 18.9447C100.203 18.5613 100.121 18.2357 100.059 17.881C100.005 17.5678 99.9247 16.8463 99.8517 16.328C99.8409 16.2511 99.8029 16.1817 99.7905 15.067C99.778 13.9524 99.778 11.7979 99.8022 10.6517C99.8264 9.50547 99.8748 9.43284 99.9361 9.37122C100.058 9.24832 100.266 9.21131 100.486 9.23551C100.587 9.24664 100.657 9.30814 100.694 11.536C100.732 13.7638 100.732 18.1697 100.804 20.5119C100.877 22.8542 101.022 22.9995 101.145 23.0985C101.994 23.7802 103.933 23.199 104.276 22.9426C104.829 22.5293 104.985 22.0502 105.363 21.4414C106.395 19.7796 106.819 19.4578 107.307 19.1523C107.731 18.8871 108.213 18.6758 108.762 18.5768C109.002 18.5336 109.336 18.4543 109.534 18.4543C109.917 18.4543 108.656 18.5027 107.964 18.6487C106.485 18.9604 105.33 19.0411 105.037 19.0774C104.909 19.0933 104.841 19.1864 104.852 19.3206C104.88 19.6647 105.374 20.0901 106.65 20.8806C107.591 21.4633 109.209 22.2762 110.044 22.7611C110.879 23.246 110.903 23.3428 110.916 23.6105C110.928 23.8783 110.928 24.314 111.013 24.5385C111.098 24.763 111.267 24.763 111.403 24.7267C111.651 24.6603 112.389 23.8651 113.464 22.3781C113.998 21.6388 114.055 20.6491 114.154 19.9937C114.378 18.5191 113.986 18.1139 113.802 17.6004C113.759 17.4792 113.741 17.3803 113.631 17.3426C113.029 17.1343 112.52 17.9144 111.068 19.3533C110.641 19.7771 110.489 20.0667 110.355 20.3594C110.224 20.6436 110.195 21.4553 110.231 22.4577C110.244 22.8082 110.34 22.8308 110.619 22.8432C111.382 22.8773 112.148 22.7589 112.661 22.5879C113.116 22.4361 113.712 22.2945 114.371 22.0264C114.93 21.799 115.473 21.1237 116.156 20.2823C116.494 19.8662 116.743 19.4167 117.085 18.6234C117.908 16.7203 118.385 15.2779 118.532 15.3227C118.808 15.4065 118.485 16.4326 118.303 17.6917C118.12 18.9509 117.83 20.6212 117.644 21.6028C117.458 22.5843 117.385 22.8264 117.457 22.8542C117.528 22.8821 117.746 22.6884 118.234 21.8988C118.721 21.1091 119.471 19.7292 119.943 18.7884C120.922 16.8327 120.831 16.3526 120.783 16.1692C120.763 16.0929 120.638 16.1069 120.503 16.1916C120.369 16.2763 120.199 16.4458 119.337 17.5619C118.475 18.678 116.926 20.7357 116.116 21.832C115.305 22.9283 115.281 23.0009 115.305 23.0505C115.455 23.3613 115.745 23.7829 115.916 24.1138C115.965 24.1996 116.013 24.2964 116.038 24.7215C116.063 25.1466 116.063 25.8971 116.063 26.5969" stroke="#FFC63D" stroke-width="6.86149" stroke-linecap="round"/>
<path d="M59.8228 18.6429C59.7815 18.6222 59.7401 18.6016 59.6878 18.5909C59.5752 18.568 59.2199 19.0973 58.7399 20.1805C58.2547 21.2754 58.3814 22.2539 58.3607 22.8684C58.3379 23.5473 58.2561 24.1346 58.2871 24.4483C58.2961 24.5394 58.3802 24.4724 58.4535 24.337C58.6326 24.0063 58.8395 23.0166 59.0589 21.5367C59.258 20.1934 59.0507 19.2721 58.9047 18.8651C58.7496 18.4327 58.5281 17.9974 58.3821 17.6831C58.2958 17.4974 58.2354 17.2861 58.173 17.1191C58.1465 17.0479 58.0693 17.0348 58.0167 17.0759C57.964 17.1169 57.9227 17.2203 57.7463 17.9561C57.5699 18.6918 57.2596 20.0567 57.0688 21.3596C56.878 22.6625 56.8159 23.862 56.8047 24.604C56.7796 26.2544 57.2534 27.1647 57.5028 27.4366C57.729 27.6833 58.1295 27.2712 58.4428 26.9895C58.7495 26.7138 59.0695 26.6232 60.1941 26.5916C60.9369 26.5706 61.4296 26.3512 61.9714 26.1648C62.2445 26.0708 62.6141 25.7508 63.1474 25.2504C63.6807 24.75 64.3425 24.0262 64.7248 23.6223C65.1071 23.2184 65.1898 23.1563 65.4004 23.0924" stroke="#FFC63D" stroke-width="4.00253" stroke-linecap="round"/>
<path d="M62.2035 22.5292C62.1828 22.4671 62.1621 22.4051 62.1825 22.3524C62.2276 22.2358 62.515 22.1124 63.1899 21.6766C64.4963 20.8329 65.357 20.1277 65.5237 19.9817C65.9814 19.5807 66.6304 19.1037 66.9338 18.9783C67.1363 18.8946 67.3417 18.9984 68.7697 19.0404C70.1349 19.0805 72.8033 18.9996 74.2707 18.9577C75.9257 18.9103 76.3228 18.8317 76.8327 18.749C78.1391 18.537 78.5576 17.9556 79.0596 17.6526C79.5131 17.3788 79.8536 17.1822 80.1569 16.9942C80.9292 16.5156 81.7337 15.5741 82.058 15.1881C82.3684 14.8187 82.3616 14.5088 82.3833 14.2888C82.3977 14.1416 81.5325 14.4843 80.5618 14.86C80.0602 15.0542 79.6907 15.2169 79.1182 15.4664C78.3586 15.7973 77.5411 16.3024 76.8104 16.5737C76.4471 16.7086 76.3047 16.8257 76.283 16.8059C76.2157 16.7444 76.4682 16.4966 77.0081 15.9141C77.548 15.3316 78.4787 14.401 79.0718 13.8699C80.2386 12.8251 81.1283 12.8581 81.3793 12.6491C81.6093 12.4575 82.853 12.4394 83.7385 12.3354C83.9258 12.3134 84.2154 12.3141 84.4162 12.3761C84.6171 12.4382 84.7205 12.5623 84.7841 12.6676C84.9761 12.9854 84.9311 13.2949 84.9937 14.0099C85.0472 14.6196 85.015 15.7383 84.9944 16.3447C84.9509 17.6182 84.8483 18.8718 84.775 19.2481C84.7226 19.5172 84.6603 19.7705 84.4106 20.2079C83.845 21.1987 83.5749 21.6505 83.3553 21.9949C83.0168 22.5256 82.7389 22.8826 82.4675 23.2069C82.2606 23.4543 82.0295 23.7186 81.7155 24.0216C81.4438 24.2838 80.924 24.8028 80.2547 25.233C79.6153 25.644 79.2094 25.996 78.8747 26.205C78.5325 26.4188 78.1227 26.56 77.5289 26.8417C76.7513 27.2107 76.1599 27.208 75.7936 27.25C75.344 27.3016 74.9479 27.48 74.6132 27.5841C74.2687 27.6912 73.8825 27.7307 73.4231 27.8347C73.1784 27.8902 72.9625 27.8974 72.4236 27.9601C70.1575 28.2236 69.6837 28.1067 69.433 28.024C69.1838 27.9418 69.3891 27.502 69.4932 27.2005C69.9581 25.8534 69.8065 24.4312 69.9732 24.2435C70.3463 23.8234 71.142 23.7412 72.0554 23.6785C72.74 23.6315 73.8787 23.6572 74.6198 23.6365C75.6725 23.6071 76.1355 23.5319 76.4685 23.5112C77.3918 23.4539 78.0162 23.3652 78.0898 23.3128C78.1014 23.3046 77.9773 23.3226 76.9934 23.7985C76.0095 24.2745 74.1482 25.2051 72.631 25.9017C71.1138 26.5983 69.997 27.0326 69.1736 27.4114C67.1812 28.328 66.8849 28.6908 66.5086 28.7854C65.8372 28.9542 65.3194 29.0041 63.9009 29.0364C63.2866 29.0504 62.8741 28.9214 62.5598 28.8174C62.2169 28.7039 61.9541 28.588 61.6927 28.4103C61.5327 28.3016 61.4101 28.17 61.3888 28.0346C61.3597 27.8501 61.9077 27.5659 62.5952 27.1592C63.9192 26.3759 64.9797 26.5199 65.3254 26.4046C65.6051 26.3113 65.8784 26.1439 66.1817 25.9869C66.5759 25.7829 66.9438 25.788 67.3721 25.6736C67.5291 25.6213 67.6551 25.5793 67.8111 25.5479C67.9051 25.5373 68.0292 25.5373 68.1571 25.5373" stroke="#FFC63D" stroke-width="6.86149" stroke-linecap="round"/>
<path d="M25.7371 27.8535C25.041 28.1128 24.8055 28.2779 24.6043 28.4256C24.5535 28.4629 24.5101 28.5138 24.3048 28.8593C24.0995 29.2049 23.7371 29.8478 23.5388 30.1965C23.2443 30.7142 23.1399 31.1223 23.0218 31.6065C22.9441 31.9248 22.9033 32.3727 22.9738 32.6994C23.0679 33.1358 23.2802 33.8356 23.393 34.1992C23.4564 34.4034 23.4701 34.9918 23.4173 35.3683C23.4011 35.4837 23.2462 35.5632 23.0292 35.7978C22.5824 36.2812 22.2189 36.6024 22.078 36.6906C21.6322 36.9695 21.3221 37.0626 20.8977 37.1162C20.6055 37.1532 20.3657 37.3226 20.1884 37.4172C19.9344 37.5526 19.7281 37.606 19.4273 37.8004C19.1139 38.0031 18.8078 38.1479 18.565 38.2908C18.2893 38.4531 18.1341 38.5857 17.9685 38.7099C17.9182 38.7475 17.8627 38.8096 17.856 38.8514C17.8493 38.8932 17.896 38.9166 18.6332 38.9228C19.3703 38.929 20.7964 38.9173 21.5544 38.9054C22.3125 38.8935 22.3592 38.8819 22.8158 38.8758C23.2724 38.8698 24.1374 38.8698 24.6239 38.8581C25.1932 38.8444 25.4402 38.799 25.7408 38.7873C25.9852 38.7778 26.3251 38.7281 26.7144 38.7164C26.9426 38.7096 27.4565 38.6573 28.1821 38.6456C28.7503 38.6364 29.0299 38.5397 29.8076 38.3863C30.1557 38.3177 30.4114 38.2563 30.7245 38.2205C31.0183 38.187 31.6009 38.0912 32.0589 37.9846C32.2762 37.934 32.4312 37.8312 32.6492 37.7955C33.0445 37.7306 33.3507 37.6895 33.6589 37.6538C33.9884 37.6155 34.4261 37.4416 34.6918 37.3293C35.1467 37.1371 35.6305 37.1228 35.9254 37.0401C36.448 36.8935 36.7279 36.7927 36.9769 36.6329C37.2309 36.47 37.4604 36.3201 37.6678 36.2429C37.8682 36.1683 38.1221 36.0601 38.3286 35.9071C38.7822 35.571 38.8893 35.317 39.0142 35.1158C39.1297 34.9296 39.0912 34.6907 39.0679 34.5669C39.0267 34.3489 38.6676 34.3712 38.3082 34.2949C37.7835 34.1834 37.3446 34.1941 37.092 34.159C36.6556 34.0984 36.2238 33.9816 35.9055 33.9699C35.4751 33.9541 35.2547 33.899 34.4235 33.8813C33.6743 33.8653 32.2597 33.8753 31.4785 33.8519C30.4128 33.82 30.1429 33.475 29.8882 33.3266C29.8002 33.2753 29.6813 33.2735 29.5343 33.1385C29.0837 32.7248 29.1376 32.26 29.0083 31.9281C28.8306 31.4719 28.8783 30.8063 28.7954 30.6349C28.6945 30.4262 28.7246 30.2162 28.5186 29.8738C28.3992 29.6753 28.3229 29.5311 28.2172 29.342C28.1107 29.1515 27.9573 29.1287 27.8748 29.1112C27.715 29.0772 27.6506 28.846 27.544 28.616C27.5017 28.5248 27.3559 28.3742 27.1612 28.1913C26.9242 27.9685 26.4462 28.1365 26.3341 28.2189C26.2386 28.2891 26.2918 28.4784 26.3447 28.6317C26.3665 28.6949 26.4094 28.715 26.4508 28.7329C26.5362 28.7697 26.973 28.7745 27.5691 28.7979C27.7807 28.8062 27.8029 28.868 27.8149 29.1493C27.849 29.9442 27.8036 30.5449 27.7623 30.6862C27.7219 30.8248 27.674 31.0284 27.5622 31.2992C27.4368 31.6031 27.0973 32.0539 26.7022 32.5553C26.4729 32.8461 26.1876 33.3631 25.8809 34.0712C25.7325 34.4136 25.5143 34.8165 25.2665 35.4177C25.1601 35.6759 25.1356 35.8554 25.0182 36.2438C24.9008 36.6322 24.702 37.2284 24.5997 37.5822C24.4973 37.9361 24.4973 38.0296 24.4973 38.0193C24.4973 37.8922 24.5324 37.6198 24.6264 37.0973C24.6929 36.728 24.7672 36.1423 24.8094 35.4321C24.8515 34.7219 24.8515 33.9036 24.8106 33.2191C24.7697 32.5346 24.6879 32.0085 24.6457 31.7025C24.6036 31.3964 24.6036 31.3263 24.6094 31.3252C24.6795 31.3125 24.8026 31.7939 25.1207 32.3775C25.3709 32.8364 25.6535 33.2352 25.9179 33.8702C26.0814 34.2628 26.3343 34.7856 26.5309 35.1618C26.8442 35.7613 27.059 36.012 27.2175 36.1179C27.4794 36.2928 27.9425 36.3545 28.5834 36.4076C28.9663 36.4394 29.4699 36.4257 29.8808 36.3965C30.5991 36.3454 30.9789 36.2135 31.091 36.1311C31.1865 36.0609 31.1567 35.9067 31.145 35.8007C31.1351 35.7114 31.0157 35.6467 30.8568 35.5878C30.672 35.5191 29.9934 35.5401 29.1141 35.5109C28.6122 35.4942 28.5007 35.222 28.2414 35.0508C28.0809 34.9448 27.7583 34.8912 27.5154 34.8204C27.3984 34.7862 27.9786 34.8196 28.8114 35.007C29.4614 35.1533 30.5559 35.475 31.2798 35.6491C32.0036 35.8232 32.3192 35.8582 32.8091 35.8763C33.299 35.8944 33.9536 35.8944 34.628 35.8944" stroke="#FFC63D" stroke-width="3.43074" stroke-linecap="round"/>
<path d="M35.8675 6.24591C35.8442 6.17578 35.6802 5.98768 35.4382 5.73991C35.3173 5.61602 35.0086 5.28066 34.5541 4.82035C34.2726 4.53522 34.0504 4.3572 33.8433 4.22738C33.6307 4.09405 33.495 3.96756 33.3179 3.87298C33.1313 3.77336 32.9403 3.73094 32.6687 3.63105C32.4772 3.56056 32.2793 3.4596 31.5932 3.41816C31.0384 3.38465 29.962 3.41214 29.3437 3.42967C28.4112 3.45612 28.0655 3.58925 27.7096 3.65974C27.4917 3.70291 27.2727 3.84854 27.0306 4.05487C26.8913 4.17362 26.706 4.26156 26.5226 4.33878C26.369 4.40349 26.2334 4.48614 26.0799 4.56903C25.9002 4.66598 25.7375 4.67529 25.5781 4.71674C25.4587 4.74779 25.3475 4.71107 25.2827 4.67582C25.1158 4.58509 25.0758 4.36889 25.0579 4.3216C25.0053 4.18257 25.4407 4.41529 26.5294 4.45107C26.8585 4.46189 27.023 4.52192 27.3515 4.58638C28.0109 4.71577 28.5575 4.84071 28.8107 4.87012C29.2908 4.92585 29.6439 4.98205 29.9444 5.04705C30.7586 5.22312 31.155 5.56014 31.4152 5.65525C31.6999 5.75935 31.981 5.87894 33.0007 5.91542C33.1761 5.9217 33.1407 5.88036 32.3278 5.86831C31.5149 5.85627 29.9251 5.85627 29.0711 5.86796C28.0373 5.88211 27.8749 5.96254 27.6682 6.02134C27.4099 6.09482 27.1905 6.10422 27.0067 6.16887C26.8373 6.22843 26.6238 6.24591 26.3282 6.12247C26.1636 6.05373 26.0209 6.01 25.7143 6.01549C25.3357 6.02227 25.6773 7.02449 25.7366 7.2016C25.816 7.43854 25.9607 7.76765 26.1024 8.04554C26.2032 8.2433 26.3021 8.54623 26.4684 8.76036C26.5761 8.89902 26.6216 9.18454 26.6872 9.39778C26.7434 9.58076 26.8108 9.77538 26.8816 10.1287C26.954 10.4895 27.1183 10.7672 27.0949 10.8329C27.0827 10.8671 27.0248 10.6531 27.0007 10.2359C26.9766 9.81859 26.9766 9.14061 26.959 8.78551C26.9415 8.4304 26.9064 8.41871 26.865 8.43607C26.7644 8.47819 26.6819 8.64187 26.5584 8.95305C26.1639 9.94749 26.1856 10.26 26.1562 10.3542C26.1411 10.4025 26.1151 10.4484 25.9803 10.4725C25.6053 10.5395 25.3121 10.4849 25.2823 10.4906C25.2012 10.506 25.593 10.9418 25.9469 11.5022C26.15 11.8239 26.4665 12.3109 26.8383 12.954C27.0983 13.4038 27.2004 13.601 27.2656 13.7783C27.3778 14.0835 27.4243 14.5205 27.543 14.97C27.5869 15.1363 27.6142 15.5 27.6259 15.9778C27.6322 16.2359 27.685 16.6331 27.7084 17.1816C27.731 17.7112 27.8735 17.9345 27.9562 18.1467C28.1155 18.5553 28.2518 18.7726 28.3164 18.9324C28.3852 19.1023 28.5925 19.3387 28.8648 19.5112C28.9948 19.5935 29.1487 19.5526 29.2429 19.5822C29.2886 19.5965 29.3371 19.5767 29.3495 19.5356C29.4501 19.2022 29.114 18.7747 28.9317 18.2976C28.6778 17.6327 28.5118 17.3579 28.4115 17.1156C28.2998 16.8454 28.2759 16.5315 28.205 15.6645C28.1449 14.9282 28.1809 13.5818 28.1985 12.8952C28.216 12.2085 28.2511 12.2202 28.3217 12.3081C28.5141 12.5472 28.758 12.9152 29.0525 13.2629C29.3088 13.5654 29.5146 13.7313 29.6207 13.808C29.6957 13.8623 29.8096 13.8734 30.2081 13.8911C31.1201 13.9316 31.7582 13.8854 31.8406 13.8735C32.1561 13.8281 32.8878 14.1075 33.2456 14.257C33.4286 14.3335 33.5878 14.393 33.8766 14.534C34.3429 14.7616 34.6859 14.8769 34.9691 14.9006C35.208 14.9206 35.3589 15.0306 35.842 15.1835C36.0787 15.2583 36.2444 15.3253 36.4042 15.4141C36.5709 15.5067 36.7758 15.5145 37.1413 15.5441C37.2814 15.5554 37.4017 15.6912 37.5432 15.7973C37.7195 15.9295 37.7208 16.2335 37.7566 16.7644C37.7665 16.9112 37.8158 17.4811 37.7924 18.3192C37.7796 18.7767 37.5338 19.0432 37.4088 19.2512C37.2836 19.4592 37.108 19.576 36.9662 19.7C36.8996 19.7581 36.6256 19.859 36.1486 20.0005C35.6714 20.1421 35.1382 20.1314 34.649 20.1431C33.9979 20.1587 33.6494 20.2965 33.0492 20.3967C32.2519 20.5299 31.5829 20.3797 31.3411 20.309C30.9856 20.2051 30.72 19.967 30.6313 19.8131C30.548 19.6687 30.472 19.4945 30.3716 19.2175C30.2708 18.9395 30.2241 18.7039 30.1883 18.2089C30.1598 17.8142 30.059 17.3954 30.0112 16.9801C29.9919 16.8126 29.952 16.5438 29.993 16.2546C30.0164 16.0888 30.4455 16.1404 31.3142 16.2925C31.9435 16.4027 32.931 16.7018 33.5072 16.8696C34.2178 17.0764 34.508 17.2495 34.8437 17.4321C35.0138 17.5246 35.191 17.603 35.0943 17.7094C34.7405 18.0989 34.0862 18.112 33.4176 18.1768C32.9025 18.2267 32.0242 18.2299 31.9642 18.242C31.2551 18.3842 33.541 18.2307 33.682 18.1952C33.9165 18.1832 34.1312 18.1949 34.255 18.2243C34.3086 18.242 34.3437 18.2654 34.3798 18.2895" stroke="#FFC63D" stroke-width="3.43074" stroke-linecap="round"/>
<path d="M8.13935 4.42993C7.67032 4.34168 7.25777 4.37081 7.03715 4.47361C6.80398 4.58227 6.39207 4.75203 5.75162 5.08318C5.3349 5.29864 5.18398 5.45889 4.82415 5.86217C4.56686 6.15054 4.59537 6.4146 4.52147 6.59859C4.42417 6.84081 4.448 7.12057 4.38182 7.37053C4.32852 7.57179 4.24239 7.79654 4.19782 8.32535C4.16114 8.76059 4.05089 9.04699 4.02133 9.24598C3.95271 9.70785 3.8894 10.4731 3.78615 11.3502C3.70773 12.0165 3.77115 13.3022 3.79299 14.006C3.82252 14.9575 4.06501 15.1801 4.18988 15.489C4.30954 15.785 4.68009 16.4712 4.91791 16.8645C5.06864 17.1138 5.46019 17.5469 5.86568 17.7986C6.13522 17.9659 6.4609 18.1364 6.76315 18.2915C7.2268 18.5294 7.90285 18.7991 8.15303 18.9019C8.44662 19.0226 8.68207 19.108 8.94725 19.2108C9.43189 19.3987 10.094 19.476 10.4545 19.5492C10.7393 19.6071 11.1812 19.6525 11.6231 19.7257C12.3511 19.8464 12.624 19.8581 13.2601 19.9097C13.7182 19.9469 14.5787 19.9172 15.0431 19.9099C15.6885 19.8998 15.9774 19.7407 16.3741 19.5796C16.7117 19.4426 16.919 19.3586 17.4032 19.0947C17.7308 18.9162 17.8897 18.8 18.0737 18.6749C18.3498 18.4872 18.5957 18.2264 18.7651 18.0574C18.8559 17.9668 18.8613 17.7419 18.8031 17.4631C18.6961 16.951 18.2303 16.9177 17.9945 16.7997C17.6438 16.6241 17.3488 16.3741 16.7456 16.1601C16.3374 16.0153 16.0533 15.9029 15.825 15.7407C15.621 15.5959 15.1867 15.4907 14.8326 15.3657C14.4788 15.2407 14.2734 15.1819 14.0088 15.0641C13.7436 14.9459 13.5092 14.7998 13.1926 14.6083C13.0148 14.5007 12.6717 14.3735 12.4127 14.2185C12.1865 14.083 11.6736 13.5679 11.3169 13.1379C11.1566 12.9446 11.0374 12.741 10.8902 12.469C10.6861 12.0916 10.6844 11.6397 10.5299 11.3213C10.4361 11.1279 10.3896 10.7863 10.4408 10.5123C10.485 10.276 10.6976 10.1518 11.0941 9.89482C11.3021 9.75994 11.521 9.6956 11.8148 9.54911C12.3601 9.27729 12.5067 9.137 12.7273 9.03375C12.9444 8.93214 13.2559 8.90138 13.7412 8.76195C14.3143 8.59731 15.1391 8.3869 15.4552 8.26181C15.7654 8.13909 15.9774 7.94567 16.4694 7.79124C16.8434 7.67384 17.4308 7.05173 17.743 6.71044C17.9381 6.4971 17.8465 5.38035 17.6049 4.68099C17.5266 4.45445 17.2296 4.45994 17.0529 4.34213C16.7888 4.16607 16.348 3.93046 16.1263 3.89317C15.9284 3.85989 15.4241 3.67984 14.6736 3.60659C13.7157 3.51311 12.9938 3.60615 12.8032 3.65005C12.2463 3.77832 11.7292 3.9737 11.3765 4.06194C11.0871 4.13432 10.8468 4.22343 10.655 4.3119C10.4276 4.41685 9.90869 4.99912 9.44209 5.73642C9.26689 6.01327 9.28656 6.73361 9.30112 7.57173C9.30632 7.87141 9.3448 7.91479 9.44716 7.96641C9.71332 8.10063 10.4867 8.12172 11.4784 8.07782C12.1096 8.04987 12.4912 7.90155 12.8722 7.71138C13.8895 7.20361 14.1975 6.56461 14.4115 6.34245C14.4528 6.29953 14.5213 6.29811 14.6241 6.29061C14.872 6.27252 14.2363 6.28311 12.9649 6.20302C12.2777 6.15974 12.1109 5.76863 11.8845 5.72451C11.3906 5.62822 10.9204 5.72407 10.6709 5.78253C10.2055 5.89159 10.0667 6.28223 9.90494 6.68595C9.78096 6.99549 9.47893 7.22293 9.10455 7.64144C8.36573 8.46733 8.11111 9.25172 8.01448 9.51072C7.99625 9.5596 8.00698 9.62059 8.02882 9.65787C8.05066 9.69516 8.09435 9.70972 8.13869 9.68082C8.25138 9.60738 8.27172 9.05272 8.25716 8.26689C8.24019 7.351 7.87638 6.65463 7.62554 6.34973C7.51319 6.21318 7.28689 6.35635 7.13312 6.466C6.88072 6.64597 6.69873 6.91451 6.5593 7.14903C6.39665 7.4226 6.37442 8.11643 6.39626 8.96867C6.41557 9.72208 6.71152 10.0901 6.85934 10.4883C6.95564 10.7477 7.26924 11.4111 7.4989 11.8415C7.61745 12.0637 7.97477 12.5742 8.45219 13.2497C8.99623 14.0195 8.93357 14.4591 9.03594 14.6367C9.05924 14.6772 9.1383 14.6374 9.16831 14.4843C9.25395 14.0473 9.16919 13.6235 8.97946 13.2795C8.63102 12.6479 8.09655 12.2702 7.75239 12.0211C7.26127 11.6657 6.81698 11.4605 6.5529 11.4164C6.29201 11.3728 6.05188 11.416 5.87561 11.4963C5.4617 11.6848 5.66845 12.7339 5.78538 13.4509C5.8434 13.8067 6.09424 14.0479 6.23367 14.224C6.36767 14.3932 6.81168 14.9123 7.45103 15.5594C7.7396 15.8514 8.07846 15.8137 8.42373 15.7919C8.64729 15.7777 8.85856 15.5212 9.10102 15.213C9.6307 14.5397 9.272 13.4465 9.24993 13.409C9.15813 13.2529 9.41716 14.0894 9.79839 14.8009C10.1992 15.549 10.5944 16.033 10.9237 16.3189C11.3878 16.7218 11.8594 16.8722 12.2031 16.9384C12.8127 17.0558 13.2572 16.9464 13.3234 16.8952C13.3574 16.8689 13.3459 16.8003 13.3241 16.7558C13.2166 16.5365 12.8914 16.2858 12.2609 16.0644C11.6537 15.851 11.0241 16.0635 10.657 16.144C10.3581 16.2096 10.199 16.4306 10.1108 16.6285C10.0116 16.8508 10.1099 17.0924 10.2341 17.283C10.6229 17.8797 11.3436 17.9016 12.0019 18.0044C12.4531 18.0749 13.1553 18.0781 13.61 18.0786C14.5565 18.0795 14.8452 17.8293 15.2635 17.4697C15.462 17.4022 15.5957 17.373 15.6838 17.3071C15.7281 17.2702 15.7718 17.2266 15.8168 17.1816" stroke="#FFC63D" stroke-width="3.43074" stroke-linecap="round"/>
<path d="M9.62022 2.80184C9.44518 2.80184 8.37041 2.7362 6.84577 2.64768C6.04225 2.60103 5.59961 2.75675 5.06952 2.82372C4.59625 2.88351 4.22979 3.22087 3.79816 3.55205C3.48316 3.79375 3.03634 4.01518 2.78075 4.32581C2.56544 4.58748 2.43829 4.8559 2.22811 5.3303C2.01482 5.81172 2.06169 6.42197 1.95163 6.91129C1.87258 7.26272 1.70896 7.61808 1.64199 8.30232C1.5969 8.76309 1.42121 9.09928 1.37678 9.76099C1.35986 10.0131 1.26606 10.5765 1.24418 11.3496C1.23329 11.7343 1.13345 12.6942 1.14439 14.064C1.15054 14.8334 1.39866 15.2641 1.62973 15.6523C1.78452 15.9124 1.92776 16.2374 2.24833 16.8116C2.4645 17.1988 2.61333 17.4972 2.79036 17.7962C2.9869 18.1282 3.18751 18.448 3.39803 18.7576C3.5876 19.0365 4.09188 19.3311 4.45854 19.5758C4.7634 19.7792 5.08775 19.9292 5.38678 20.0512C5.72367 20.1886 6.0823 20.2607 6.43635 20.4377C6.80011 20.6196 7.16569 20.7686 7.44217 20.8581C7.85761 20.9926 8.51163 21.1014 8.91177 21.1893C9.39442 21.2952 9.79526 21.543 10.1821 21.6206C10.6718 21.7188 10.9887 21.7419 12.4984 21.7863C12.8246 21.7959 12.9115 21.852 13.5255 21.8745C15.2761 21.9388 16.5807 21.8314 16.8124 21.721C17.1446 21.5628 17.5089 21.4992 17.7745 21.4333C18.0461 21.3658 18.3046 21.2128 18.6689 21.0689C19.3993 20.7805 20.0947 20.4835 20.4153 20.1195C20.7339 19.7577 20.8466 19.3126 21.0127 18.9811C21.1964 18.6144 21.1569 17.3102 21.025 16.5938C20.9604 16.2433 20.6716 15.9311 20.4945 15.6656C20.3007 15.3748 19.9873 15.0692 19.6442 14.9247C19.3469 14.7994 19.0153 14.5825 18.6278 14.5265C18.1216 14.4533 17.5567 14.2285 17.0922 14.0959C16.5585 13.9435 16.0542 14.007 15.6883 13.8751C15.2303 13.71 14.9258 13.6092 14.5173 13.4773C14.034 13.3211 13.426 13.2114 12.9917 13.0685C12.4884 12.9029 12.0084 12.4834 11.6769 12.2729C11.3347 12.0556 11.0802 11.8204 10.9025 11.4888C10.8592 11.4081 10.88 11.3125 10.9128 11.2346C11.0585 10.8886 11.5191 10.737 11.8072 10.6809C12.141 10.616 12.9301 10.5593 13.5964 10.4273C14.1753 10.3127 14.7454 10.2503 15.1326 10.1727C15.7966 10.0397 16.2479 10.0288 16.6029 9.91879C16.9648 9.8066 17.2437 9.78618 17.5752 9.5876C17.9833 9.3432 18.5472 9.05818 18.8353 8.726C18.9483 8.59568 19.1446 8.48267 19.3213 8.3063C19.5841 8.04402 19.5206 7.55575 19.6757 6.81747C20.0106 5.22365 19.3681 4.8811 19.2235 4.59301C19.0696 4.28621 18.8151 3.99661 18.1209 3.30176C17.7728 2.95335 17.379 2.97953 17.0916 2.81344C16.7311 2.60514 16.0781 2.51541 15.0385 2.44844C14.5172 2.41486 14.1301 2.2502 12.643 2.21605C11.919 2.19943 11.2141 2.35893 9.34009 2.41496C8.89221 2.44778 8.73706 2.4922 8.53882 2.52535C8.42809 2.53663 8.29681 2.53663 8.02895 2.66923" stroke="#1A1A1A" stroke-width="2.28716" stroke-linecap="round"/>
<path d="M30.1069 1.14453C29.5798 1.16641 28.6509 1.29835 28.2517 1.35438C27.6507 1.43874 26.7718 1.60865 25.0526 1.90569C24.245 2.04523 23.7445 2.46926 23.4882 2.81172C23.2484 3.13212 23.3221 3.42005 23.289 4.29657C23.2591 5.08509 23.2777 6.57341 23.2996 7.39457C23.3317 8.60051 23.6304 9.07701 23.6974 9.43106C23.7978 9.9622 23.8519 10.6683 23.9623 11.0442C24.11 11.5474 24.3823 11.9055 24.5699 12.3809C24.7952 12.9516 24.8239 13.3429 24.9459 13.7185C25.0638 14.0817 25.1342 14.8639 25.2001 15.3542C25.2545 15.7585 25.3768 16.1051 25.5094 16.437C25.6909 16.8911 25.642 17.2323 25.6755 17.6964C25.7125 18.2082 26.1062 18.7135 26.2825 19.0669C26.6058 19.7146 27.2983 20.1284 27.7624 20.3054C28.2342 20.4854 28.8007 20.6813 29.1113 20.8139C29.3631 20.9214 29.6852 21.0128 30.083 21.0904C30.3852 21.1493 30.6366 21.1455 31.6879 21.2118C32.6718 21.2738 34.577 21.2343 35.6014 21.2124C36.939 21.1838 37.6389 20.8829 38.1282 20.5172C38.4636 20.2666 38.7249 20.0859 38.9686 19.777C39.2028 19.48 39.1904 18.8951 39.3004 18.0571C39.4773 16.7106 39.3667 15.7099 39.433 15.3804C39.5585 14.7567 39.4118 14.2732 39.3018 14.1299C39.0395 13.7886 38.6838 13.567 38.3629 13.323C37.9594 13.0162 37.6667 12.9252 37.3462 12.7591C37.0908 12.6268 36.761 12.5937 36.2969 12.5267C35.7824 12.4525 35.2135 12.3285 34.4547 12.2284C32.5105 11.9719 32.2299 11.997 31.1939 11.93C30.7512 11.9014 30.506 11.6655 30.1854 11.4334C29.8293 11.1756 29.4452 10.8035 29.2565 10.5387C28.8958 10.0321 29.1349 9.1685 29.0573 8.70604C28.9377 7.99288 29.1117 7.46585 29.2549 7.3886C29.4081 7.30594 30.451 7.3107 31.9531 7.34352C32.9523 7.36535 33.3318 7.66343 33.675 7.73039C34.1316 7.81951 34.9218 7.92864 35.5636 7.99561C36.0177 8.04298 36.4481 8.19385 36.7471 8.24988C37.1135 8.31852 37.684 8.37154 38.0403 8.21772C38.3362 8.09003 38.042 7.64354 37.9091 7.26826C37.7057 6.6942 37.5779 6.34002 36.8946 5.30371C36.5271 4.74633 36.3844 4.461 36.1965 4.19546C35.8743 3.74033 35.3687 3.09118 34.6954 2.60485C34.3811 2.37782 33.9551 2.2067 33.3249 1.86392C32.9348 1.65174 32.1026 1.67495 31.5665 1.60898C31.2609 1.57137 30.7513 1.40974 30.3731 1.2778C30.3065 1.23338 30.2408 1.18962 30.1523 1.16707C30.0638 1.14453 29.9544 1.14453 29.8417 1.14453" stroke="#1A1A1A" stroke-width="2.28716" stroke-linecap="round"/>
<path d="M24.9351 26.4047C24.7601 26.3609 24.5605 26.3384 24.3619 26.3493C23.8976 26.3749 23.5003 27.3303 22.827 28.0596C22.4481 28.47 21.8016 29.2716 21.1025 30.4014C20.4951 31.3829 21.0445 33.2763 21.1665 33.6854C21.2787 34.0616 21.486 34.4034 21.7847 34.8016C21.8887 34.9402 21.8852 35.0897 21.8524 35.2219C21.7672 35.5652 21.136 35.5319 20.705 35.6645C19.8681 35.922 19.5659 35.7971 19.1243 35.8415C18.6496 35.8893 18.1298 36.0398 17.7098 36.1837C17.2446 36.343 16.5863 36.789 16.0409 37.1888C15.85 37.3288 15.6534 37.4103 15.532 37.5644C15.2718 37.8951 15.2549 39.2992 15.5848 40.2603C15.7635 40.781 16.9708 40.7035 17.6405 40.8361C18.0573 40.9187 18.94 40.9913 20.8207 41.1014C22.231 41.1839 24.9683 41.1239 26.421 41.102C28.1422 41.0761 28.5354 40.9038 29.1649 40.8368C29.9307 40.7553 30.6796 40.6386 31.1437 40.5716C31.5531 40.5125 32.0706 40.3734 32.5033 40.2182C32.9956 40.0416 33.7282 40.0631 34.1718 39.953C34.6672 39.8301 35.0781 39.8204 35.3987 39.6878C35.533 39.6322 35.7849 39.6215 36.2799 39.4458C37.9569 38.8504 38.7685 38.1416 39.1226 37.8651C39.5365 37.5419 39.9182 37.2134 40.2169 36.6508C40.4632 36.1869 40.6038 35.7547 40.7699 35.4891C40.9613 35.1831 41.0905 34.7164 41.0911 33.1516C41.0913 32.7223 40.9148 32.5715 40.7716 32.4502C40.3911 32.1278 39.5257 32.1067 39.0812 32.0407C38.8168 32.0015 37.719 31.9741 36.2606 31.985C35.5203 31.9906 35.1696 32.1279 34.4635 32.1949C34.1484 32.2248 32.9684 32.3056 31.3662 32.2728C30.8133 32.2615 30.7923 32.1743 30.7701 32.0858C30.6656 31.6695 30.5496 31.2686 30.4936 30.7385C30.3687 29.5567 30.3945 27.7758 30.2954 27.6323C30.2506 27.5674 30.1744 27.5544 30.1406 27.5103C29.9888 27.3124 29.8654 26.959 29.5223 26.6927C29.2797 26.5045 28.9809 26.3834 28.0882 26.3274C27.5858 26.2959 27.3233 26.1845 25.4619 26.1504C25.0684 26.1613 25.0027 26.1832 24.9142 26.1945C24.8257 26.2058 24.7163 26.2058 24.471 26.3384" stroke="#1A1A1A" stroke-width="2.28716" stroke-linecap="round"/>
<path d="M11.5168 5.53469C11.1508 5.46149 10.7426 5.42378 10.355 5.44208C8.99263 5.5064 7.71034 8.04569 7.52457 8.63795C7.43355 8.92811 7.41311 9.70602 7.50461 10.7403C7.5418 11.1607 7.77911 11.3353 7.90998 11.3564C8.04086 11.3774 8.11406 11.231 8.15177 10.6066C8.18948 9.98218 8.18948 8.88417 8.18948 7.75289" stroke="#FFC63D" stroke-width="2.28716" stroke-linecap="round"/>
<path d="M52.4903 8.113C51.8273 8.23709 50.322 8.86127 49.8075 9.59356C49.6006 9.88794 49.5449 10.9243 49.5656 12.2818C49.5772 13.049 49.877 13.6241 50.1603 13.8789C50.2202 13.9328 50.2543 13.6316 50.2756 12.6775C50.2969 11.7234 50.2969 10.0069 50.3589 9.06056C50.43 7.97644 50.6729 7.7796 50.6729 7.69563C50.6729 7.42237 50.5062 8.38248 50.2248 9.37265C50.0955 9.82766 50.1302 10.1385 50.0675 10.7498C50.0136 11.2761 50.0462 12.2504 50.0876 12.8649C50.18 14.2383 50.5476 14.9214 50.6723 15.4641C50.7922 15.9859 51.1103 16.5921 51.1949 17.5203C51.2666 18.3067 51.3823 19.3909 51.4456 20.0803C51.4907 20.5708 51.7157 21.1457 51.8633 21.5229C52.0244 21.9346 52.3011 22.4003 52.4897 22.6513C52.6643 22.8837 52.7197 23.2351 52.876 23.5597C53.073 23.9686 53.2411 24.3418 53.5544 24.7711C53.8215 25.137 53.9317 25.4498 54.1188 26.0965C54.2439 26.5291 54.4945 26.9112 54.6518 27.3092C54.8606 27.8374 55.2879 28.2486 55.8619 28.8543C56.1841 29.1942 56.4999 29.5032 56.8132 29.7642C57.0972 30.0008 57.4813 30.1299 57.8366 30.2139C58.3464 30.3344 58.6306 30.5485 58.9853 30.6732C59.5409 30.8686 59.884 30.9246 60.166 31.0286C60.7128 31.2303 61.3668 31.3419 61.7635 31.4152C62.1106 31.4794 62.4741 31.4673 63.014 31.5299C64.7622 31.7329 65.0642 31.6766 65.6377 31.7806C66.4128 31.9212 67.4181 31.9273 68.1977 32.0313C68.3852 32.0563 68.533 32.094 69.2991 32.1566C70.0012 32.2141 71.3474 32.1779 72.0813 32.1676C73.0891 32.1534 73.4619 31.9699 73.7966 31.9066C74.4987 31.7738 75.6754 31.7192 76.3538 31.4688C77.2695 31.1309 78.2824 30.9271 78.8934 30.6745C79.3279 30.4949 79.9143 30.2991 81.0427 29.7984C81.501 29.595 81.8382 29.1924 82.2149 28.9618C82.6948 28.6679 83.0716 28.4604 83.4369 28.1163C83.782 27.7914 84.5493 26.9413 85.1397 26.3926C85.5727 25.9901 85.913 25.5363 86.1323 25.1606C86.3425 24.8006 86.4357 24.4922 86.5503 24.1162C86.7184 23.5653 86.8743 23.2601 86.9997 22.8731C87.165 22.3626 87.229 21.9228 87.2923 21.5985C87.3727 21.1866 87.4797 20.6067 87.5327 20.1264C87.5725 19.7655 87.8131 19.1879 87.9087 18.2478C87.9365 17.9743 87.9817 17.7239 88.013 16.584C88.0398 15.6098 88.0237 13.8309 88.003 12.8837C87.9727 11.4966 87.8156 10.7464 87.7107 10.3393C87.6129 9.96027 87.5649 9.49298 87.2936 9.18997C87.0701 8.94037 86.8756 8.67828 86.5315 8.35428C86.2892 8.12602 85.9775 8.19698 85.035 8.13431C84.1974 8.07862 82.6241 8.113 81.7731 8.12334C80.6702 8.13674 80.3379 8.2584 80.0553 8.37371C79.73 8.50644 79.4606 8.80111 78.5121 9.71796C78.0787 10.1368 77.5605 10.6173 76.8294 11.338C76.4745 11.6878 76.1178 11.9559 75.5444 12.4976C75.1153 12.903 74.5724 13.2293 73.9573 13.6887C73.5612 13.9845 73.1517 14.1079 72.7462 14.274C71.3971 14.8266 70.6456 15.1733 70.3209 15.2153C70.0961 15.2444 69.7268 15.3199 69.3094 15.3406C69.0503 15.3535 68.1451 15.4453 66.84 15.4246C66.001 15.4113 65.5894 15.2372 65.224 15.1739C64.7502 15.0918 64.2107 15.0279 63.8143 14.8299C63.355 14.6004 63.0826 14.5679 62.7383 14.4122C62.0918 14.1198 61.5999 13.6918 61.2652 13.4305C60.813 13.0773 60.0971 12.669 59.6465 12.4275C59.2905 12.2366 59.0718 11.9784 58.7688 11.7591C58.5215 11.5801 57.7608 10.9394 57.067 10.3497C56.581 9.93652 56.169 9.63962 55.8754 9.42968C55.5694 9.21085 55.145 8.92895 54.8727 8.74032C54.5725 8.53238 54.1009 8.30226 53.7866 8.12397C53.431 8.02965 53.1809 7.98766 52.7852 7.88363C52.5774 7.86233 52.2259 7.86233 51.8636 7.86233" stroke="#FFC63D" stroke-width="3.43074" stroke-linecap="round"/>
<path d="M52.5527 8.99219C52.8661 10.0776 52.9488 10.4524 53.1262 12.1576C53.2065 12.9305 53.385 14.0458 53.5012 14.6728C53.6839 15.658 54.117 16.2994 54.3695 16.9803C54.56 17.4938 54.5782 18.0566 54.6518 18.568C54.6718 18.7067 54.7449 18.8287 54.7872 18.8616C54.842 18.9042 54.8715 18.0447 54.8301 16.7619C54.8121 16.2017 54.706 15.8306 54.5187 15.277C54.0815 13.9853 53.7021 13.1916 53.6601 13.17C53.4915 13.0832 53.7641 13.7319 53.9299 14.9348C54.0645 15.9117 54.3438 17.6267 54.503 18.5834C54.7448 20.0366 55.1209 20.5634 55.4343 21.1788C55.7202 21.7404 55.9782 22.1301 56.2179 22.5271C56.5064 23.005 56.6676 23.6135 56.7406 23.7605C56.7547 23.7889 56.7929 23.6179 56.8036 23.0987C56.8142 22.5795 56.8142 21.6902 56.6901 20.2601C56.5661 18.83 56.3179 16.886 56.1694 15.8018C55.9435 14.1533 55.8541 13.5269 55.8012 13.2339C55.7366 12.8767 55.6862 12.5869 55.5615 12.3042C55.4143 11.9706 55.2688 11.6882 55.1748 11.4269C55.1478 11.3519 55.1021 11.2708 55.1015 11.2696C55.0608 11.1881 55.7019 12.0774 56.8161 13.3486C57.3884 14.0015 58.0751 14.5785 58.5505 14.9909C59.67 15.9621 60.2999 16.322 60.9372 16.7613C61.8023 17.3576 62.3467 17.7433 62.7249 17.9326C63.1012 18.0159 63.3932 18.1626 63.6123 18.1939C63.7072 18.2045 63.7692 18.2045 63.8332 18.2045" stroke="#FFC63D" stroke-width="3.43074" stroke-linecap="round"/>
<path d="M101.904 10.605C101.904 10.5082 101.904 9.90155 101.953 9.05795C101.969 8.76754 102.098 8.77112 102.196 8.83164C102.667 9.12151 102.661 9.86854 102.857 10.3344C103.07 10.8416 103.2 11.1904 103.419 11.5084C103.666 11.8655 103.785 12.5563 104.214 13.1465C104.494 13.5332 104.862 13.9046 105.155 14.1618C105.581 14.535 105.889 14.6147 106.81 14.6881C107.633 14.7536 109.184 14.713 110.031 14.6888C110.977 14.6618 111.849 14.5663 113.071 14.5421C113.831 14.5271 114.299 14.2729 114.716 14.1515C115.4 13.9521 115.913 13.5408 116.281 13.2591C116.557 13.0486 116.868 12.929 117.234 12.5993C117.666 12.211 118.066 11.7318 118.274 11.4252C118.471 11.1355 118.848 10.9733 119.13 10.6186C119.36 10.3286 119.582 9.97124 119.851 9.61619C120.357 8.94864 120.927 8.47916 121.245 8.24625C121.391 8.13894 121.49 8.01334 121.721 7.97666C122.463 7.85885 122.81 8.30604 123.042 8.53784C123.104 8.59914 123.176 8.64788 123.177 8.66072C123.198 8.90439 122.666 8.3075 122.372 8.17253C122.057 8.02794 121.785 7.84242 121.346 7.75659C120.775 7.64489 120.318 7.79254 120.183 7.90221C120.116 7.95718 120.073 8.03608 120.061 8.10981C120.048 8.18353 120.072 8.25615 120.145 8.35409C120.538 8.88146 121.439 8.84301 121.844 9.1247C122.215 9.38325 122.541 9.79665 123.151 10.5166C123.443 10.8607 123.495 11.2638 123.678 11.5697C123.894 11.9283 123.935 12.4126 124.106 12.7544C124.18 12.9026 124.228 12.9994 124.253 12.5651C124.278 12.1309 124.278 11.1626 124.278 10.1649" stroke="#FFC63D" stroke-width="6.86149" stroke-linecap="round"/>
<path d="M56.489 6.50535C56.1207 6.28437 55.7837 6.1337 54.4924 6.0779C53.3493 6.0285 51.2123 6.05892 50.0382 6.11417C48.8641 6.16941 48.7167 6.2799 48.604 6.39207C48.1711 6.82287 47.9333 7.46963 47.6174 8.52878C47.3438 9.44644 47.3373 12.2151 47.4483 13.5901C47.5267 14.5603 48.1163 15.7263 48.3038 16.7877C48.4997 17.8965 48.8239 18.7397 48.9366 19.6163C49.0089 20.1787 49.4199 20.6392 49.5504 21.2536C49.6874 21.8981 49.7926 22.4249 50.0147 22.9098C50.2303 23.3805 50.4243 23.9495 50.6101 24.5834C50.8078 25.2577 51.1319 25.7731 51.3172 26.3691C51.4864 26.9136 51.7993 27.3735 52.1537 27.8205C52.5449 28.314 52.6565 28.936 53.5091 29.8278C54.0537 30.3973 54.7011 30.4628 55.7212 31.2781C57.104 32.3833 57.7145 32.3601 58.2909 32.5275C59.0259 32.741 59.9801 33.1391 60.7463 33.3277C61.6134 33.5412 62.4031 33.5878 64.2646 33.6994C66.013 33.8042 69.4041 33.7373 71.2049 33.7189C73.3443 33.6971 74.2278 33.5141 75.0871 33.292C76.0684 33.0384 76.576 32.7708 77.0414 32.455C77.6565 32.0375 78.7322 31.9896 79.2735 31.748C79.8223 31.503 80.5916 31.2106 81.4487 30.7256C82.0616 30.3789 82.6384 29.9092 83.1613 29.59C83.6723 29.2781 84.1652 28.7909 84.5938 28.3819C85.3064 27.7017 86.2857 26.6704 87.1206 25.9662C88.7227 24.6146 88.817 23.9561 89.0586 23.4344C89.4916 22.4994 89.5246 21.0187 89.6356 20.31C89.665 20.1222 89.7098 19.9026 89.7288 17.8736C89.7478 15.8446 89.7478 12.0142 89.7109 9.9858C89.6741 7.95735 89.6004 7.84686 89.5257 7.7347C89.1299 7.14103 88.1161 6.72856 87.5173 6.50647C86.9217 6.28555 86.1786 6.13482 85.1574 6.04051C84.4632 5.9764 83.8728 5.8 79.6641 5.77935C78.3271 5.77279 77.846 6.39151 76.6574 7.61583C75.5542 8.75217 75.3148 9.66381 75.0168 10.2793C74.7841 10.7601 73.9443 11.7062 73.1948 12.2336C72.34 12.835 70.8528 12.6794 69.3667 12.7921C69.027 12.8179 68.8439 12.9026 67.773 12.9406C64.7518 13.0476 62.6285 12.9049 62.4058 12.7564C61.9484 12.4515 61.4756 12.1259 61.085 11.6225C60.701 11.1277 60.4711 10.5634 59.8953 9.89317C59.3538 9.263 58.6854 8.5165 58.2206 7.97688C57.8863 7.58884 57.4957 7.25088 56.9561 6.86026C56.7145 6.69285 56.085 6.61696 55.2485 6.58013C54.9276 6.5433 54.8172 6.46963 54.5917 6.39374" stroke="#1A1A1A" stroke-width="2.28716" stroke-linecap="round"/>
<path d="M100.407 5.38924C98.5486 5.83455 97.7327 6.50084 97.0793 7.3764C96.5811 8.04384 96.3153 8.51199 96.2405 9.62583C96.2227 9.89118 96.13 10.0365 96.0921 11.4936C96.0541 12.9506 96.0541 15.7128 96.0726 17.2095C96.0965 19.1568 96.2774 20.1146 96.4995 21.1782C96.6462 21.8808 97.0943 22.4249 97.207 23.373C97.2762 23.9549 97.6524 24.3601 97.8577 24.8255C98.0967 25.3671 98.3957 25.9583 98.6574 26.4812C98.9209 27.0076 99.1412 27.5588 99.8069 28.6162C101.275 30.9477 102.19 30.7976 102.823 31.0018C103.564 31.2413 104.235 31.802 104.776 31.951C105.351 32.1092 106.536 32.6168 107.491 32.9555C107.687 33.0251 107.954 33.0297 109.652 33.0487C111.35 33.0677 114.48 33.0677 116.204 33.0308C118.692 32.9777 119.489 32.3244 120.325 31.9717C120.964 31.7024 121.387 31.3579 122.018 31.2083C123.056 30.9626 123.581 30.3177 124.177 29.8328C124.738 29.3761 125.44 28.9047 125.907 28.2898C126.657 27.3025 126.634 26.1525 127.042 25.0733C127.379 24.1788 127.527 23.2887 127.712 22.5236C127.919 21.6696 127.899 21.1648 127.955 18.9706C128.006 16.9612 127.974 13.1303 127.937 11.065C127.897 8.81321 127.64 8.47851 127.417 8.20005C127.014 7.69576 126.599 7.28879 125.374 6.0081C124.797 5.40474 124.293 4.94505 123.846 4.60911C123.376 4.25562 122.768 3.9763 121.952 3.84572C119.818 3.50437 119.271 4.01202 118.787 4.19784C118.006 4.49754 117.043 5.60576 116.016 7.3178C115.59 8.02892 115.512 8.51199 115.27 8.97739C114.997 9.50258 114.583 10.0365 114.118 10.5031C113.617 11.0046 112.797 10.9316 111.595 11.0622C109.122 11.3309 107.18 10.8234 106.79 10.3038C106.216 9.54048 106.434 8.6303 106.211 8.06947C106.014 7.57001 105.69 7.17718 105.43 6.7302C105.138 6.22773 104.391 5.69058 103.85 5.31558C103.402 5.00503 102.864 5.01871 101.975 4.85018C101.421 4.83121 100.427 4.83121 99.8594 4.88646C99.2919 4.9417 99.1814 5.05219 99.0675 5.16603" stroke="#1A1A1A" stroke-width="2.28716" stroke-linecap="round"/>
<path d="M58.3867 20.344C58.9771 20.344 60.2439 20.1967 60.8214 19.9171C61.2874 19.7492 61.659 19.6744 61.9559 19.6376C62.1054 19.6007 62.2528 19.5271 62.4046 19.4512" stroke="#1A1A1A" stroke-width="2.28716" stroke-linecap="round"/>
<path d="M73.7871 20.1211C74.4132 20.1211 75.0393 20.1211 75.4171 20.1579C75.7949 20.1948 75.9054 20.2684 76.3675 20.3064C76.8295 20.3443 77.6398 20.3443 78.4746 20.3443" stroke="#1A1A1A" stroke-width="2.28716" stroke-linecap="round"/>
<path d="M62.0693 24.252C62.3283 24.3993 62.7747 24.9194 63.5537 25.6627C64.0232 26.1106 65.3707 26.1493 66.8952 26.0757C67.4663 26.0481 67.6095 25.8547 67.7222 25.6683C68.1454 24.9686 68.2445 24.5511 68.3556 24.2911C68.4086 24.167 68.5403 24.1047 68.6893 24.122C69.4276 24.2077 69.768 25.031 70.2328 25.6811C70.4166 25.9382 70.768 26.2542 71.3254 26.425C71.8829 26.5957 72.6563 26.5957 73.2021 26.4484C74.0425 26.0065 74.3829 25.5556 74.4939 25.2587C74.5682 25.1091 74.6786 24.9618 74.7925 24.81" stroke="#1A1A1A" stroke-width="2.28716" stroke-linecap="round"/>
<path d="M119.938 18.671C120.122 18.7826 121.088 18.5617 121.666 18.1699C122.277 17.7558 122.985 17.5215 123.508 17.1281C123.62 17.0717 123.731 17.0349 123.843 16.9607C123.955 16.8864 124.066 16.7759 124.18 16.6621" stroke="#1A1A1A" stroke-width="2.28716" stroke-linecap="round"/>
<path d="M102.974 16.998C103.307 17.2949 104.121 17.5918 104.98 18.0192C105.725 18.5226 106.504 18.8563 107.228 19.1353C107.547 19.2302 107.768 19.2302 108.219 19.4534" stroke="#1A1A1A" stroke-width="2.28716" stroke-linecap="round"/>
<path d="M110.451 25.0314C110.709 24.9957 111.453 24.623 112.566 23.8819C114.069 22.8813 114.726 22.6899 115.267 22.3724C115.52 22.2241 115.844 22.1676 116.215 22.056C116.712 21.9062 117.22 22.1285 117.61 22.4064C118.337 23.133 118.561 23.4678 118.746 23.7089C118.857 23.8395 119.005 23.9868 119.268 24.3618" stroke="#1A1A1A" stroke-width="2.28716" stroke-linecap="round"/>
</svg>
